<svg width="355" height="85" viewBox="0 0 355 85" fill="none" xmlns="http://www.w3.org/2000/svg">
<path fill-rule="evenodd" clip-rule="evenodd" d="M349.372 81.6839C349.356 83.0645 350.461 84.1972 351.842 84.2138C353.223 84.2305 354.355 83.1248 354.372 81.7442C354.389 80.3635 353.283 79.2308 351.902 79.2142C350.522 79.1976 349.389 80.3033 349.372 81.6839ZM327.447 33.916C326.066 33.8993 324.96 32.7666 324.977 31.386C324.994 30.0054 326.126 28.8997 327.507 28.9163C328.887 28.933 329.993 30.0657 329.977 31.4463C329.96 32.8269 328.827 33.9326 327.447 33.916ZM300.28 6.08647C300.263 7.46708 301.369 8.59977 302.75 8.61642C304.13 8.63307 305.263 7.52736 305.28 6.14674C305.296 4.76613 304.191 3.63343 302.81 3.61679C301.429 3.60014 300.297 4.70585 300.28 6.08647ZM275.282 5.7852C275.265 7.16581 276.371 8.2985 277.752 8.31515C279.132 8.3318 280.265 7.22609 280.281 5.84547C280.298 4.46486 279.192 3.33216 277.812 3.31552C276.431 3.29887 275.299 4.40458 275.282 5.7852ZM252.753 8.01364C251.373 7.99699 250.267 6.86429 250.284 5.48368C250.3 4.10307 251.433 2.99736 252.814 3.014C254.194 3.03064 255.3 4.16335 255.283 5.54396C255.267 6.92457 254.134 8.03028 252.753 8.01364ZM225.285 5.18241C225.269 6.56302 226.375 7.69572 227.755 7.71237C229.136 7.72901 230.268 6.6233 230.285 5.24269C230.302 3.86208 229.196 2.72937 227.815 2.71273C226.435 2.69609 225.302 3.8018 225.285 5.18241ZM202.757 7.41085C201.376 7.3942 200.271 6.26151 200.287 4.8809C200.304 3.50028 201.437 2.39457 202.817 2.41122C204.198 2.42786 205.304 3.56056 205.287 4.94117C205.27 6.32179 204.138 7.4275 202.757 7.41085ZM175.289 4.57963C175.272 5.96024 176.378 7.09293 177.759 7.10958C179.139 7.12623 180.272 6.02052 180.289 4.6399C180.305 3.25929 179.2 2.12659 177.819 2.10995C176.438 2.0933 175.306 3.19901 175.289 4.57963ZM152.761 6.80807C151.38 6.79142 150.274 5.65872 150.291 4.27811C150.308 2.8975 151.44 1.79178 152.821 1.80843C154.202 1.82507 155.307 2.95778 155.291 4.33839C155.274 5.719 154.141 6.82471 152.761 6.80807ZM125.293 3.97684C125.276 5.35745 126.382 6.49015 127.762 6.5068C129.143 6.52344 130.276 5.41773 130.292 4.03711C130.309 2.65651 129.203 1.5238 127.823 1.50716C126.442 1.49051 125.309 2.59623 125.293 3.97684ZM102.764 6.20528C101.384 6.18863 100.278 5.05594 100.295 3.67533C100.311 2.29471 101.444 1.189 102.825 1.20565C104.205 1.22229 105.311 2.35499 105.294 3.7356C105.278 5.11622 104.145 6.22193 102.764 6.20528ZM75.2965 3.37406C75.2798 4.75466 76.3855 5.88736 77.7661 5.90401C79.1468 5.92066 80.2795 4.81494 80.2961 3.43433C80.3127 2.05372 79.207 0.921016 77.8264 0.904376C76.4458 0.887729 75.3131 1.99344 75.2965 3.37406ZM52.768 5.6025C51.3874 5.58585 50.2817 4.45315 50.2983 3.07254C50.3149 1.69193 51.4476 0.586214 52.8283 0.602862C54.2089 0.619501 55.3146 1.75221 55.2979 3.13281C55.2813 4.51343 54.1486 5.61914 52.768 5.6025ZM25.3 2.77127C25.2834 4.15188 26.3891 5.28458 27.7697 5.30122C29.1503 5.31787 30.283 4.21216 30.2996 2.83154C30.3163 1.45094 29.2106 0.318231 27.83 0.301591C26.4493 0.284944 25.3167 1.39066 25.3 2.77127ZM299.979 31.0848C299.962 32.4654 301.068 33.5981 302.448 33.6147C303.829 33.6314 304.962 32.5256 304.978 31.145C304.995 29.7644 303.889 28.6317 302.509 28.6151C301.128 28.5984 299.995 29.7041 299.979 31.0848ZM277.45 33.3132C276.07 33.2966 274.964 32.1639 274.98 30.7832C274.997 29.4026 276.13 28.2969 277.51 28.3136C278.891 28.3302 279.997 29.4629 279.98 30.8435C279.963 32.2241 278.831 33.3298 277.45 33.3132ZM249.982 30.482C249.966 31.8626 251.071 32.9953 252.452 33.0119C253.833 33.0286 254.965 31.9229 254.982 30.5422C254.999 29.1616 253.893 28.0289 252.512 28.0123C251.132 27.9956 249.999 29.1014 249.982 30.482ZM227.454 32.7104C226.073 32.6938 224.967 31.5611 224.984 30.1805C225.001 28.7998 226.133 27.6941 227.514 27.7108C228.895 27.7274 230 28.8601 229.984 30.2407C229.967 31.6213 228.834 32.7271 227.454 32.7104ZM199.986 29.8792C199.969 31.2598 201.075 32.3925 202.456 32.4091C203.836 32.4258 204.969 31.3201 204.986 29.9395C205.002 28.5589 203.896 27.4262 202.516 27.4095C201.135 27.3929 200.003 28.4986 199.986 29.8792ZM177.457 32.1076C176.077 32.091 174.971 30.9583 174.988 29.5777C175.004 28.1971 176.137 27.0913 177.518 27.108C178.898 27.1246 180.004 28.2573 179.987 29.6379C179.971 31.0186 178.838 32.1243 177.457 32.1076ZM149.99 29.2764C149.973 30.657 151.079 31.7897 152.459 31.8064C153.84 31.823 154.973 30.7173 154.989 29.3367C155.006 27.9561 153.9 26.8234 152.52 26.8067C151.139 26.7901 150.006 27.8958 149.99 29.2764ZM127.461 31.5048C126.08 31.4882 124.975 30.3555 124.991 28.9749C125.008 27.5943 126.141 26.4886 127.521 26.5052C128.902 26.5219 130.008 27.6546 129.991 29.0352C129.974 30.4158 128.842 31.5215 127.461 31.5048ZM99.9932 28.6736C99.9766 30.0542 101.082 31.1869 102.463 31.2036C103.844 31.2202 104.976 30.1145 104.993 28.7339C105.01 27.3533 103.904 26.2206 102.523 26.2039C101.143 26.1873 100.01 27.293 99.9932 28.6736ZM77.4648 30.9021C76.0841 30.8854 74.9784 29.7527 74.9951 28.3721C75.0117 26.9915 76.1444 25.8858 77.525 25.9024C78.9056 25.9191 80.0114 27.0518 79.9947 28.4324C79.9781 29.813 78.8454 30.9187 77.4648 30.9021ZM49.9969 28.0708C49.9803 29.4514 51.086 30.5841 52.4666 30.6008C53.8472 30.6174 54.9799 29.5117 54.9965 28.1311C55.0132 26.7505 53.9075 25.6178 52.5269 25.6011C51.1462 25.5845 50.0136 26.6902 49.9969 28.0708ZM27.4684 30.2993C26.0878 30.2826 24.9821 29.1499 24.9987 27.7693C25.0154 26.3887 26.1481 25.283 27.5287 25.2996C28.9093 25.3163 30.015 26.449 29.9984 27.8296C29.9817 29.2102 28.849 30.3159 27.4684 30.2993ZM0.000429727 27.468C-0.0162024 28.8487 1.08951 29.9814 2.47013 29.998C3.85074 30.0146 4.98343 28.9089 5.00006 27.5283C5.01673 26.1477 3.91101 25.015 2.5304 24.9984C1.14978 24.9817 0.0170924 26.0874 0.000429727 27.468ZM327.145 58.9143C325.765 58.8976 324.659 57.7649 324.675 56.3843C324.692 55.0037 325.825 53.898 327.205 53.9146C328.586 53.9313 329.692 55.064 329.675 56.4446C329.658 57.8252 328.526 58.9309 327.145 58.9143ZM299.677 56.0828C299.661 57.4634 300.766 58.5961 302.147 58.6128C303.528 58.6294 304.66 57.5237 304.677 56.1431C304.694 54.7625 303.588 53.6298 302.207 53.6131C300.827 53.5965 299.694 54.7022 299.677 56.0828ZM277.149 58.3115C275.768 58.2948 274.662 57.1621 274.679 55.7815C274.696 54.4009 275.828 53.2952 277.209 53.3119C278.59 53.3285 279.695 54.4612 279.679 55.8418C279.662 57.2224 278.529 58.3281 277.149 58.3115ZM249.681 55.48C249.664 56.8606 250.77 57.9933 252.151 58.01C253.531 58.0266 254.664 56.9209 254.681 55.5403C254.697 54.1597 253.591 53.027 252.211 53.0103C250.83 52.9937 249.698 54.0994 249.681 55.48ZM227.152 57.7087C225.772 57.6921 224.666 56.5594 224.683 55.1787C224.699 53.7981 225.832 52.6924 227.213 52.7091C228.593 52.7257 229.699 53.8584 229.682 55.239C229.666 56.6196 228.533 57.7253 227.152 57.7087ZM199.685 54.8772C199.668 56.2578 200.774 57.3905 202.154 57.4072C203.535 57.4238 204.667 56.3181 204.684 54.9375C204.701 53.5569 203.595 52.4242 202.214 52.4075C200.834 52.3909 199.701 53.4966 199.685 54.8772ZM177.156 57.1059C175.775 57.0893 174.67 55.9566 174.686 54.576C174.703 53.1954 175.836 52.0896 177.216 52.1063C178.597 52.1229 179.703 53.2556 179.686 54.6362C179.669 56.0169 178.537 57.1226 177.156 57.1059ZM149.688 54.2744C149.672 55.6551 150.777 56.7878 152.158 56.8044C153.538 56.821 154.671 55.7153 154.688 54.3347C154.704 52.9541 153.599 51.8214 152.218 51.8048C150.838 51.7881 149.705 52.8938 149.688 54.2744ZM127.16 56.5031C125.779 56.4865 124.673 55.3538 124.69 53.9732C124.707 52.5926 125.839 51.4869 127.22 51.5035C128.601 51.5201 129.706 52.6528 129.69 54.0335C129.673 55.4141 128.54 56.5198 127.16 56.5031ZM99.6918 53.6717C99.6752 55.0523 100.781 56.185 102.162 56.2016C103.542 56.2183 104.675 55.1126 104.691 53.7319C104.708 52.3513 103.602 51.2186 102.222 51.202C100.841 51.1853 99.7085 52.2911 99.6918 53.6717ZM77.1634 55.9003C75.7827 55.8837 74.677 54.751 74.6937 53.3704C74.7103 51.9898 75.843 50.8841 77.2236 50.9007C78.6042 50.9174 79.71 52.0501 79.6933 53.4307C79.6767 54.8113 78.544 55.917 77.1634 55.9003ZM49.6955 53.0689C49.6789 54.4495 50.7846 55.5822 52.1652 55.5988C53.5458 55.6155 54.6785 54.5098 54.6951 53.1292C54.7118 51.7485 53.6061 50.6158 52.2255 50.5992C50.8449 50.5826 49.7122 51.6883 49.6955 53.0689ZM27.167 55.2976C25.7864 55.2809 24.6807 54.1482 24.6973 52.7676C24.714 51.387 25.8467 50.2813 27.2273 50.2979C28.6079 50.3146 29.7136 51.4473 29.697 52.8279C29.6803 54.2085 28.5476 55.3142 27.167 55.2976ZM326.844 83.9123C325.463 83.8957 324.357 82.763 324.374 81.3824C324.391 80.0018 325.523 78.896 326.904 78.9127C328.285 78.9293 329.39 80.062 329.374 81.4426C329.357 82.8233 328.224 83.929 326.844 83.9123ZM299.376 81.0811C299.359 82.4617 300.465 83.5944 301.846 83.611C303.226 83.6277 304.359 82.522 304.376 81.1414C304.392 79.7608 303.286 78.6281 301.906 78.6114C300.525 78.5948 299.393 79.7005 299.376 81.0811ZM276.847 83.3095C275.467 83.2929 274.361 82.1602 274.378 80.7796C274.394 79.399 275.527 78.2933 276.908 78.3099C278.288 78.3265 279.394 79.4592 279.377 80.8399C279.361 82.2205 278.228 83.3262 276.847 83.3095ZM249.38 80.4783C249.363 81.8589 250.469 82.9916 251.849 83.0083C253.23 83.0249 254.363 81.9192 254.379 80.5386C254.396 79.158 253.29 78.0253 251.909 78.0086C250.529 77.992 249.396 79.0977 249.38 80.4783ZM226.851 82.7067C225.47 82.6901 224.365 81.5574 224.381 80.1768C224.398 78.7962 225.531 77.6905 226.911 77.7071C228.292 77.7238 229.398 78.8565 229.381 80.2371C229.364 81.6177 228.232 82.7234 226.851 82.7067ZM199.383 79.8755C199.366 81.2561 200.472 82.3888 201.853 82.4055C203.233 82.4221 204.366 81.3164 204.383 79.9358C204.399 78.5552 203.294 77.4225 201.913 77.4058C200.532 77.3892 199.4 78.4949 199.383 79.8755ZM176.855 82.104C175.474 82.0873 174.368 80.9546 174.385 79.574C174.402 78.1934 175.534 77.0877 176.915 77.1043C178.296 77.121 179.401 78.2537 179.385 79.6343C179.368 81.0149 178.235 82.1206 176.855 82.104ZM149.387 79.2727C149.37 80.6533 150.476 81.786 151.856 81.8027C153.237 81.8193 154.37 80.7136 154.386 79.333C154.403 77.9524 153.297 76.8197 151.917 76.8031C150.536 76.7864 149.403 77.8921 149.387 79.2727ZM126.858 81.5012C125.478 81.4845 124.372 80.3518 124.389 78.9712C124.405 77.5906 125.538 76.4849 126.919 76.5015C128.299 76.5182 129.405 77.6509 129.388 79.0315C129.372 80.4121 128.239 81.5178 126.858 81.5012ZM99.3904 78.67C99.3738 80.0506 100.48 81.1833 101.86 81.1999C103.241 81.2166 104.373 80.1108 104.39 78.7302C104.407 77.3496 103.301 76.2169 101.92 76.2003C100.54 76.1836 99.4071 77.2893 99.3904 78.67ZM76.862 80.8986C75.4814 80.882 74.3756 79.7493 74.3923 78.3687C74.4089 76.9881 75.5416 75.8824 76.9222 75.899C78.3029 75.9156 79.4086 77.0483 79.3919 78.429C79.3753 79.8096 78.2426 80.9153 76.862 80.8986ZM49.3941 78.0672C49.3775 79.4478 50.4832 80.5805 51.8638 80.5971C53.2444 80.6138 54.3771 79.5081 54.3937 78.1274C54.4104 76.7468 53.3047 75.6141 51.9241 75.5975C50.5435 75.5808 49.4108 76.6866 49.3941 78.0672ZM26.8656 80.2959C25.485 80.2792 24.3793 79.1465 24.3959 77.7659C24.4126 76.3853 25.5453 75.2796 26.9259 75.2962C28.3065 75.3129 29.4122 76.4456 29.3956 77.8262C29.3789 79.2068 28.2462 80.3125 26.8656 80.2959Z" fill="#FAFAFF"/>
</svg>
