<svg width="84" height="355" viewBox="0 0 84 355" fill="none" xmlns="http://www.w3.org/2000/svg">
<path fill-rule="evenodd" clip-rule="evenodd" d="M2.53014 349.372C1.14953 349.355 0.0168305 350.461 0.000185486 351.842C-0.0164595 353.222 1.08925 354.355 2.46987 354.372C3.85048 354.388 4.98318 353.283 4.99982 351.902C5.01647 350.521 3.91075 349.389 2.53014 349.372ZM52.828 324.977C51.4474 324.96 50.3147 326.066 50.298 327.446C50.2814 328.827 51.3871 329.96 52.7677 329.976C54.1483 329.993 55.281 328.887 55.2977 327.507C55.3143 326.126 54.2086 324.993 52.828 324.977ZM75.5976 302.75C75.6142 301.369 76.7469 300.263 78.1275 300.28C79.5082 300.296 80.6139 301.429 80.5972 302.81C80.5806 304.19 79.4479 305.296 78.0673 305.279C76.6867 305.263 75.5809 304.13 75.5976 302.75ZM75.8989 277.751C75.9155 276.371 77.0482 275.265 78.4288 275.282C79.8094 275.298 80.9151 276.431 80.8985 277.812C80.8819 279.192 79.7492 280.298 78.3685 280.281C76.9879 280.265 75.8822 279.132 75.8989 277.751ZM78.7303 250.283C77.3497 250.267 76.217 251.373 76.2004 252.753C76.1837 254.134 77.2894 255.266 78.6701 255.283C80.0507 255.3 81.1834 254.194 81.2 252.813C81.2167 251.433 80.1109 250.3 78.7303 250.283ZM76.5016 227.755C76.5183 226.374 77.651 225.269 79.0316 225.285C80.4122 225.302 81.5179 226.435 81.5013 227.815C81.4846 229.196 80.3519 230.301 78.9713 230.285C77.5907 230.268 76.485 229.136 76.5016 227.755ZM79.3331 200.287C77.9525 200.27 76.8198 201.376 76.8032 202.757C76.7865 204.137 77.8922 205.27 79.2728 205.287C80.6535 205.303 81.7862 204.198 81.8028 202.817C81.8194 201.436 80.7137 200.304 79.3331 200.287ZM77.1044 177.759C77.1211 176.378 78.2538 175.272 79.6344 175.289C81.015 175.306 82.1207 176.438 82.1041 177.819C82.0874 179.199 80.9547 180.305 79.5741 180.289C78.1935 180.272 77.0878 179.139 77.1044 177.759ZM79.9359 150.291C78.5553 150.274 77.4226 151.38 77.4059 152.76C77.3893 154.141 78.495 155.274 79.8756 155.29C81.2562 155.307 82.3889 154.201 82.4056 152.821C82.4222 151.44 81.3165 150.307 79.9359 150.291ZM77.7072 127.762C77.7239 126.382 78.8566 125.276 80.2372 125.293C81.6178 125.309 82.7235 126.442 82.7068 127.822C82.6902 129.203 81.5575 130.309 80.1769 130.292C78.7963 130.276 77.6906 129.143 77.7072 127.762ZM80.5387 100.294C79.1581 100.278 78.0254 101.383 78.0087 102.764C77.9921 104.145 79.0978 105.277 80.4784 105.294C81.859 105.311 82.9917 104.205 83.0084 102.824C83.025 101.444 81.9193 100.311 80.5387 100.294ZM78.31 77.7659C78.3266 76.3853 79.4593 75.2796 80.84 75.2962C82.2206 75.3129 83.3263 76.4456 83.3096 77.8262C83.293 79.2068 82.1603 80.3125 80.7797 80.2958C79.3991 80.2792 78.2934 79.1465 78.31 77.7659ZM81.1415 50.298C79.7609 50.2814 78.6282 51.3871 78.6115 52.7677C78.5949 54.1483 79.7006 55.281 81.0812 55.2977C82.4618 55.3143 83.5945 54.2086 83.6111 52.828C83.6278 51.4474 82.5221 50.3147 81.1415 50.298ZM78.9128 27.7694C78.9294 26.3888 80.0621 25.2831 81.4427 25.2997C82.8233 25.3164 83.9291 26.4491 83.9124 27.8297C83.8958 29.2103 82.7631 30.316 81.3825 30.2994C80.0018 30.2827 78.8961 29.1501 78.9128 27.7694ZM50.5993 302.448C50.6159 301.068 51.7486 299.962 53.1293 299.978C54.5099 299.995 55.6156 301.128 55.5989 302.508C55.5823 303.889 54.4496 304.995 53.069 304.978C51.6884 304.961 50.5827 303.829 50.5993 302.448ZM53.4308 274.98C52.0502 274.964 50.9175 276.069 50.9008 277.45C50.8842 278.831 51.9899 279.963 53.3705 279.98C54.7511 279.996 55.8838 278.891 55.9005 277.51C55.9171 276.13 54.8114 274.997 53.4308 274.98ZM51.2021 252.452C51.2187 251.071 52.3514 249.965 53.732 249.982C55.1127 249.999 56.2184 251.131 56.2017 252.512C56.1851 253.893 55.0524 254.998 53.6718 254.982C52.2912 254.965 51.1854 253.832 51.2021 252.452ZM54.0336 224.984C52.6529 224.967 51.5202 226.073 51.5036 227.453C51.487 228.834 52.5927 229.967 53.9733 229.983C55.3539 230 56.4866 228.894 56.5032 227.514C56.5199 226.133 55.4142 225 54.0336 224.984ZM51.8049 202.455C51.8215 201.075 52.9542 199.969 54.3348 199.986C55.7154 200.002 56.8212 201.135 56.8045 202.516C56.7879 203.896 55.6552 205.002 54.2746 204.985C52.8939 204.969 51.7882 203.836 51.8049 202.455ZM54.6363 174.987C53.2557 174.971 52.123 176.077 52.1064 177.457C52.0897 178.838 53.1955 179.97 54.5761 179.987C55.9567 180.004 57.0894 178.898 57.106 177.517C57.1227 176.137 56.017 175.004 54.6363 174.987ZM52.4077 152.459C52.4243 151.078 53.557 149.973 54.9376 149.989C56.3182 150.006 57.4239 151.139 57.4073 152.519C57.3906 153.9 56.2579 155.006 54.8773 154.989C53.4967 154.972 52.391 153.84 52.4077 152.459ZM55.2391 124.991C53.8585 124.975 52.7258 126.08 52.7092 127.461C52.6925 128.841 53.7982 129.974 55.1788 129.991C56.5595 130.007 57.6922 128.902 57.7088 127.521C57.7254 126.14 56.6197 125.008 55.2391 124.991ZM53.0104 102.463C53.0271 101.082 54.1598 99.9763 55.5404 99.993C56.921 100.01 58.0267 101.142 58.0101 102.523C57.9934 103.904 56.8607 105.009 55.4801 104.993C54.0995 104.976 52.9938 103.843 53.0104 102.463ZM55.8419 74.9948C54.4613 74.9782 53.3286 76.0839 53.312 77.4645C53.2953 78.8451 54.401 79.9778 55.7816 79.9944C57.1622 80.0111 58.2949 78.9054 58.3116 77.5248C58.3282 76.1442 57.2225 75.0115 55.8419 74.9948ZM53.6132 52.4663C53.6299 51.0857 54.7626 49.98 56.1432 49.9966C57.5238 50.0133 58.6295 51.146 58.6129 52.5266C58.5962 53.9072 57.4635 55.0129 56.0829 54.9963C54.7023 54.9796 53.5966 53.847 53.6132 52.4663ZM56.4447 24.9985C55.0641 24.9818 53.9314 26.0876 53.9147 27.4682C53.8981 28.8488 55.0038 29.9815 56.3844 29.9981C57.765 30.0148 58.8977 28.9091 58.9144 27.5284C58.931 26.1478 57.8253 25.0151 56.4447 24.9985ZM54.216 2.46988C54.2326 1.08926 55.3653 -0.016449 56.746 0.000183105C58.1266 0.0168457 59.2323 1.14954 59.2156 2.53015C59.199 3.91077 58.0663 5.01648 56.6857 4.99982C55.3051 4.98318 54.1994 3.85049 54.216 2.46988ZM27.8297 324.675C26.4491 324.659 25.3164 325.764 25.2997 327.145C25.2831 328.526 26.3888 329.658 27.7694 329.675C29.15 329.692 30.2827 328.586 30.2994 327.205C30.316 325.825 29.2103 324.692 27.8297 324.675ZM25.6013 302.147C25.6179 300.766 26.7506 299.66 28.1312 299.677C29.5118 299.694 30.6175 300.826 30.6009 302.207C30.5843 303.588 29.4516 304.693 28.0709 304.677C26.6903 304.66 25.5846 303.527 25.6013 302.147ZM28.4325 274.679C27.0519 274.662 25.9192 275.768 25.9025 277.149C25.8859 278.529 26.9916 279.662 28.3722 279.679C29.7528 279.695 30.8855 278.589 30.9022 277.209C30.9188 275.828 29.8131 274.696 28.4325 274.679ZM26.204 252.15C26.2207 250.77 27.3534 249.664 28.734 249.681C30.1146 249.697 31.2203 250.83 31.2037 252.211C31.187 253.591 30.0543 254.697 28.6737 254.68C27.2931 254.664 26.1874 253.531 26.204 252.15ZM29.0353 224.683C27.6547 224.666 26.522 225.772 26.5053 227.152C26.4887 228.533 27.5944 229.666 28.975 229.682C30.3556 229.699 31.4883 228.593 31.5049 227.213C31.5216 225.832 30.4159 224.699 29.0353 224.683ZM26.8068 202.154C26.8235 200.773 27.9562 199.668 29.3368 199.684C30.7174 199.701 31.8231 200.834 31.8065 202.214C31.7898 203.595 30.6571 204.701 29.2765 204.684C27.8959 204.667 26.7902 203.535 26.8068 202.154ZM29.6381 174.686C28.2574 174.669 27.1247 175.775 27.1081 177.156C27.0914 178.536 28.1972 179.669 29.5778 179.686C30.9584 179.702 32.0911 178.597 32.1077 177.216C32.1244 175.835 31.0187 174.703 29.6381 174.686ZM27.4096 152.158C27.4263 150.777 28.559 149.671 29.9396 149.688C31.3202 149.705 32.4259 150.837 32.4092 152.218C32.3926 153.598 31.2599 154.704 29.8793 154.688C28.4987 154.671 27.393 153.538 27.4096 152.158ZM30.2408 124.69C28.8602 124.673 27.7275 125.779 27.7109 127.159C27.6942 128.54 28.7999 129.673 30.1806 129.689C31.5612 129.706 32.6939 128.6 32.7105 127.22C32.7272 125.839 31.6214 124.706 30.2408 124.69ZM28.0124 102.161C28.029 100.781 29.1617 99.6749 30.5423 99.6916C31.923 99.7082 33.0287 100.841 33.012 102.222C32.9954 103.602 31.8627 104.708 30.4821 104.691C29.1015 104.675 27.9957 103.542 28.0124 102.161ZM30.8436 74.6934C29.463 74.6768 28.3303 75.7825 28.3137 77.1631C28.297 78.5437 29.4027 79.6764 30.7833 79.6931C32.164 79.7097 33.2966 78.604 33.3133 77.2234C33.3299 75.8428 32.2242 74.7101 30.8436 74.6934ZM28.6152 52.1649C28.6318 50.7843 29.7645 49.6786 31.1451 49.6953C32.5257 49.7119 33.6315 50.8446 33.6148 52.2252C33.5982 53.6058 32.4655 54.7115 31.0849 54.6949C29.7042 54.6783 28.5985 53.5456 28.6152 52.1649ZM0.301699 326.844C0.318344 325.463 1.45104 324.357 2.83166 324.374C4.21227 324.39 5.31798 325.523 5.30134 326.904C5.28469 328.284 4.15199 329.39 2.77138 329.373C1.39077 329.357 0.285054 328.224 0.301699 326.844ZM3.13293 299.376C1.75231 299.359 0.619614 300.465 0.602969 301.845C0.586324 303.226 1.69204 304.359 3.07265 304.375C4.45326 304.392 5.58596 303.286 5.60261 301.906C5.61925 300.525 4.51354 299.392 3.13293 299.376ZM0.904482 276.847C0.921127 275.467 2.05383 274.361 3.43444 274.377C4.81505 274.394 5.92076 275.527 5.90412 276.907C5.88747 278.288 4.75477 279.394 3.37416 279.377C1.99355 279.36 0.887837 278.228 0.904482 276.847ZM3.73571 249.379C2.3551 249.363 1.2224 250.468 1.20575 251.849C1.18911 253.23 2.29482 254.362 3.67543 254.379C5.05604 254.396 6.18874 253.29 6.20539 251.909C6.22203 250.529 5.11632 249.396 3.73571 249.379ZM1.50727 226.851C1.52391 225.47 2.65661 224.365 4.03722 224.381C5.41783 224.398 6.52355 225.531 6.5069 226.911C6.49026 228.292 5.35756 229.397 3.97695 229.381C2.59633 229.364 1.49062 228.231 1.50727 226.851ZM4.33849 199.383C2.95788 199.366 1.82518 200.472 1.80854 201.853C1.79189 203.233 2.8976 204.366 4.27821 204.383C5.65883 204.399 6.79153 203.293 6.80817 201.913C6.82482 200.532 5.7191 199.4 4.33849 199.383ZM2.11005 176.854C2.12669 175.474 3.25939 174.368 4.64001 174.385C6.02062 174.401 7.12633 175.534 7.10969 176.915C7.09304 178.295 5.96034 179.401 4.57973 179.384C3.19912 179.368 2.0934 178.235 2.11005 176.854ZM4.94128 149.387C3.56066 149.37 2.42796 150.476 2.41132 151.856C2.39467 153.237 3.50039 154.37 4.881 154.386C6.26161 154.403 7.39431 153.297 7.41095 151.916C7.4276 150.536 6.32189 149.403 4.94128 149.387ZM2.71283 126.858C2.72948 125.477 3.86218 124.372 5.24279 124.388C6.6234 124.405 7.72911 125.538 7.71247 126.918C7.69582 128.299 6.56312 129.405 5.18251 129.388C3.8019 129.371 2.69619 128.239 2.71283 126.858ZM5.54406 99.3902C4.16345 99.3736 3.03075 100.479 3.0141 101.86C2.99746 103.24 4.10317 104.373 5.48378 104.39C6.86439 104.406 7.99709 103.301 8.01374 101.92C8.03038 100.54 6.92467 99.4068 5.54406 99.3902ZM3.31537 76.8617C3.33202 75.4811 4.46472 74.3754 5.84533 74.392C7.22594 74.4087 8.33165 75.5414 8.31501 76.922C8.29836 78.3026 7.16566 79.4083 5.78505 79.3917C4.40444 79.375 3.29873 78.2423 3.31537 76.8617Z" fill="#FAFAFF"/>
</svg>
