<svg width="43" height="44" viewBox="0 0 43 44" fill="none" xmlns="http://www.w3.org/2000/svg">
<path d="M36.4013 7.61847C33.6606 6.33169 30.7217 5.38364 27.6488 4.84066C27.5929 4.83018 27.537 4.85637 27.5081 4.90874C27.1302 5.59664 26.7115 6.49405 26.4183 7.19942C23.1132 6.69311 19.8251 6.69311 16.5878 7.19942C16.2946 6.47837 15.8607 5.59664 15.481 4.90874C15.4522 4.85811 15.3963 4.83192 15.3403 4.84066C12.2692 5.38191 9.33021 6.32995 6.58784 7.61847C6.5641 7.62894 6.54375 7.64642 6.53025 7.6691C0.95566 16.1911 -0.571452 24.5036 0.177698 32.7131C0.181087 32.7533 0.203121 32.7917 0.23363 32.8161C3.91158 35.5799 7.47431 37.2578 10.9709 38.3699C11.0268 38.3874 11.0861 38.3665 11.1217 38.3193C11.9489 37.1635 12.6862 35.9449 13.3183 34.6633C13.3556 34.5882 13.32 34.4992 13.2438 34.4695C12.0743 34.0156 10.9607 33.4621 9.88952 32.8336C9.80479 32.7829 9.798 32.6589 9.87595 32.5996C10.1014 32.4267 10.3268 32.2469 10.5421 32.0653C10.581 32.0322 10.6353 32.0252 10.6811 32.0461C17.7183 35.3338 25.3369 35.3338 32.2911 32.0461C32.3369 32.0234 32.3912 32.0304 32.4318 32.0636C32.6471 32.2451 32.8725 32.4267 33.0996 32.5996C33.1776 32.6589 33.1725 32.7829 33.0878 32.8336C32.0166 33.4743 30.903 34.0156 29.7318 34.4678C29.6556 34.4975 29.6217 34.5882 29.659 34.6633C30.3047 35.9431 31.042 37.1617 31.8539 38.3176C31.8878 38.3665 31.9488 38.3874 32.0047 38.3699C35.5182 37.2578 39.0809 35.5799 42.7589 32.8161C42.7911 32.7917 42.8115 32.755 42.8149 32.7148C43.7114 23.2238 41.3131 14.9794 36.4572 7.67084C36.4453 7.64642 36.4251 7.62894 36.4013 7.61847ZM14.3692 27.7144C12.2505 27.7144 10.5048 25.724 10.5048 23.2797C10.5048 20.8353 12.2167 18.845 14.3692 18.845C16.5386 18.845 18.2675 20.8528 18.2336 23.2797C18.2336 25.724 16.5217 27.7144 14.3692 27.7144ZM28.6573 27.7144C26.5386 27.7144 24.7929 25.724 24.7929 23.2797C24.7929 20.8353 26.5047 18.845 28.6573 18.845C30.8268 18.845 32.5555 20.8528 32.5217 23.2797C32.5217 25.724 30.8268 27.7144 28.6573 27.7144Z" fill="#F7F7F7"/>
</svg>
