<svg width="19" height="14" viewBox="0 0 19 14" fill="none" xmlns="http://www.w3.org/2000/svg">
<path d="M18.9984 3.43775C18.9355 2.90945 18.7755 2.41907 18.5172 1.97039C18.1763 1.37637 17.6977 0.899883 17.0814 0.539677C16.4651 0.179471 15.7439 0 14.9179 0C14.0918 0 13.3903 0.179471 12.774 0.539677C12.1577 0.899883 11.6791 1.37763 11.3382 1.97039C11.0799 2.42033 10.9199 2.90945 10.857 3.43775H10.8426C10.8426 3.47061 10.8465 3.50348 10.8478 3.53507C10.8347 3.6741 10.8255 3.81565 10.8255 3.95974V5.06816L10.8229 6.81358L10.8177 10.3474C10.8177 10.5761 10.7587 10.7847 10.6393 10.9755C10.5213 11.1664 10.3627 11.318 10.166 11.4318C9.96798 11.5455 9.75162 11.6024 9.51429 11.6024C9.27696 11.6024 9.06323 11.5455 8.8731 11.4318C8.68166 11.318 8.52825 11.1651 8.40893 10.9755C8.29091 10.7847 8.2306 10.5761 8.2306 10.3474V4.20366C8.2306 3.46809 8.05883 2.80202 7.71791 2.20673C7.37567 1.61018 6.89576 1.13244 6.27686 0.770967C5.65796 0.409497 4.93547 0.228762 4.10546 0.228762C3.27546 0.228762 2.57263 0.409497 1.95373 0.770967C1.33483 1.13244 0.854923 1.61145 0.512691 2.20673C0.17046 2.80329 0 3.46935 0 4.20366V13.7712H2.82177V3.88011C2.82177 3.65135 2.88077 3.44281 2.99879 3.25196C3.1168 3.06112 3.27152 2.90945 3.46296 2.7957C3.65309 2.68195 3.86813 2.62508 4.10415 2.62508C4.34017 2.62508 4.55784 2.68195 4.75584 2.7957C4.95383 2.90945 5.11118 3.06238 5.22919 3.25196C5.3472 3.44281 5.40621 3.65135 5.40621 3.88011V10.0238C5.40621 10.7468 5.57667 11.409 5.9189 12.0119C6.26113 12.6148 6.74104 13.0963 7.35994 13.4578C7.97884 13.8193 8.69477 14 9.51036 14C9.98109 14 10.4164 13.9393 10.819 13.8231C11.1258 13.7346 11.4143 13.6145 11.6818 13.4578C12.3007 13.0963 12.7806 12.6148 13.1228 12.0119C13.465 11.409 13.6355 10.7468 13.6355 10.0238V7.09795C14.0315 7.21296 14.4563 7.27237 14.9153 7.27237C15.7387 7.27237 16.4586 7.0929 17.0735 6.73395C17.4407 6.51909 17.758 6.26 18.0281 5.96046C18.2091 5.75824 18.369 5.53832 18.5054 5.29692C18.786 4.80274 18.9473 4.26812 18.9958 3.69179C19.0024 3.60711 19.001 3.52117 18.9932 3.43649L18.9984 3.43775ZM16.216 3.6425C16.216 3.86874 16.157 4.07728 16.039 4.26686C15.921 4.45644 15.7649 4.60684 15.5682 4.72059C15.3716 4.83434 15.1565 4.89122 14.9205 4.89122C14.6845 4.89122 14.4721 4.83434 14.2832 4.72059C14.0931 4.60684 13.9397 4.45644 13.823 4.26686C13.705 4.07728 13.646 3.87 13.646 3.6425V3.55403C13.6591 3.35939 13.7142 3.17739 13.8178 3.01183C13.9358 2.82224 14.0892 2.67058 14.2806 2.55683C14.4707 2.44308 14.6845 2.38621 14.9205 2.38621C15.1565 2.38621 15.3729 2.44308 15.5696 2.55683C15.7662 2.67058 15.9236 2.82224 16.0416 3.01183C16.1557 3.19635 16.2134 3.39857 16.2173 3.61849V3.6425H16.216Z" fill="#F7F7F7"/>
</svg>
