<svg width="32" height="46" viewBox="0 0 32 46" fill="none" xmlns="http://www.w3.org/2000/svg">
<path fill-rule="evenodd" clip-rule="evenodd" d="M9 3.25977C7.54408 3.25977 6.14605 3.84135 5.11393 4.87937C4.08153 5.91767 3.5 7.32772 3.5 8.79976C3.5 10.2718 4.08153 11.6819 5.11393 12.7202C6.14605 13.7582 7.54408 14.3398 9 14.3398H14.5V3.25977H9ZM17.5 3.25977V14.3398H23C24.4559 14.3398 25.854 13.7582 26.8861 12.7202C27.9185 11.6819 28.5 10.2718 28.5 8.79976C28.5 7.32772 27.9185 5.91767 26.8861 4.87937C25.854 3.84135 24.4559 3.25977 23 3.25977H17.5ZM27.8117 15.8398C28.2392 15.5448 28.6418 15.2092 29.0134 14.8354C30.6065 13.2332 31.5 11.062 31.5 8.79976C31.5 6.53757 30.6065 4.36631 29.0134 2.7641C27.42 1.1616 25.2571 0.259766 23 0.259766H9C6.7429 0.259766 4.57997 1.1616 2.98658 2.7641C1.39347 4.36631 0.500003 6.53757 0.500003 8.79976C0.500003 11.062 1.39347 13.2332 2.98658 14.8354C3.35819 15.2092 3.76079 15.5448 4.18833 15.8398C3.76079 16.1347 3.35819 16.4704 2.98658 16.8441C1.39347 18.4463 0.500003 20.6176 0.500003 22.8798C0.500003 25.142 1.39347 27.3132 2.98658 28.9154C3.3582 29.2892 3.76081 29.6248 4.18836 29.9198C2.83178 30.8557 1.77494 32.1671 1.14588 33.6944C0.503612 35.2539 0.335698 36.9693 0.663011 38.6242C0.990333 40.2792 1.79848 41.8005 2.98658 42.9954C4.17476 44.1904 5.68965 45.0052 7.34013 45.3354C8.99066 45.6655 10.7014 45.496 12.2556 44.8485C13.8097 44.2011 15.1367 43.1053 16.0697 41.701C17.0026 40.2969 17.5 38.6469 17.5 36.9598V29.391C19.0295 30.6952 20.9769 31.4198 23 31.4198C25.2571 31.4198 27.42 30.5179 29.0134 28.9154C30.6065 27.3132 31.5 25.142 31.5 22.8798C31.5 20.6176 30.6065 18.4463 29.0134 16.8441C28.6418 16.4704 28.2392 16.1347 27.8117 15.8398ZM17.5 22.8798C17.5 24.3518 18.0815 25.7619 19.1139 26.8002C20.1461 27.8382 21.5441 28.4198 23 28.4198C24.4559 28.4198 25.854 27.8382 26.8861 26.8002C27.9185 25.7619 28.5 24.3518 28.5 22.8798C28.5 21.4077 27.9185 19.9977 26.8861 18.9594C25.854 17.9214 24.4559 17.3398 23 17.3398C21.5441 17.3398 20.1461 17.9214 19.1139 18.9594C18.0815 19.9977 17.5 21.4077 17.5 22.8798ZM14.5 17.3398H9C7.54408 17.3398 6.14605 17.9214 5.11393 18.9594C4.08153 19.9977 3.5 21.4077 3.5 22.8798C3.5 24.3518 4.08153 25.7619 5.11393 26.8002C6.14605 27.8382 7.54408 28.4198 9 28.4198H14.5V17.3398ZM14.5 31.4198H9C7.91412 31.4198 6.85191 31.7436 5.94765 32.3512C5.0433 32.9589 4.33715 33.8236 3.91982 34.8369C3.50245 35.8503 3.39312 36.9658 3.606 38.0422C3.81887 39.1185 4.3441 40.1059 5.11393 40.8802C5.88368 41.6543 6.86336 42.1805 7.92861 42.3936C8.99382 42.6067 10.098 42.4974 11.102 42.0792C12.106 41.661 12.9655 40.9521 13.5709 40.0409C14.1763 39.1296 14.5 38.0574 14.5 36.9598V31.4198Z" fill="#F7F7F7"/>
</svg>
