<svg width="43" height="44" viewBox="0 0 43 44" fill="none" xmlns="http://www.w3.org/2000/svg">
<g clip-path="url(#clip0_302_5921)">
<path fill-rule="evenodd" clip-rule="evenodd" d="M21.5178 0C9.61901 0 0 9.91527 0 22.1818C0 31.9871 6.16323 40.2871 14.7133 43.2247C15.7822 43.4455 16.1738 42.7474 16.1738 42.1602C16.1738 41.6459 16.1386 39.8833 16.1386 38.0467C10.1528 39.369 8.90636 35.4025 8.90636 35.4025C7.94441 32.8317 6.51911 32.171 6.51911 32.171C4.55999 30.8121 6.66182 30.8121 6.66182 30.8121C8.83501 30.9591 9.97533 33.0891 9.97533 33.0891C11.8988 36.4674 14.9982 35.5129 16.2452 34.9252C16.4231 33.4929 16.9935 32.5013 17.5991 31.9506C12.8251 31.4364 7.80215 29.5268 7.80215 21.0064C7.80215 18.5826 8.65662 16.5995 10.0106 15.0572C9.79695 14.5065 9.04862 12.2291 10.2246 9.18109C10.2246 9.18109 12.0415 8.59338 16.1381 11.458C17.892 10.9724 19.7008 10.7254 21.5178 10.7234C23.3347 10.7234 25.1867 10.9807 26.897 11.458C30.9941 8.59338 32.811 9.18109 32.811 9.18109C33.987 12.2291 33.2382 14.5065 33.0246 15.0572C34.4142 16.5995 35.2334 18.5826 35.2334 21.0064C35.2334 29.5268 30.2105 31.3994 25.4008 31.9506C26.1848 32.6483 26.8613 33.9702 26.8613 36.0636C26.8613 39.0382 26.8261 41.4255 26.8261 42.1597C26.8261 42.7474 27.2181 43.4455 28.2866 43.2252C36.8367 40.2866 42.9999 31.9871 42.9999 22.1818C43.0351 9.91527 33.3809 0 21.5178 0Z" fill="#F7F7F7"/>
</g>
<defs>
<clipPath id="clip0_302_5921">
<rect width="43" height="44" fill="white"/>
</clipPath>
</defs>
</svg>
