<svg width="43" height="44" viewBox="0 0 43 44" fill="none" xmlns="http://www.w3.org/2000/svg">
<g clip-path="url(#clip0_302_5920)">
<path d="M39.817 0H3.17461C1.41934 0 0 1.41797 0 3.17109V40.8203C0 42.5734 1.41934 44 3.17461 44H39.817C41.5723 44 43 42.5734 43 40.8289V3.17109C43 1.41797 41.5723 0 39.817 0ZM12.7572 37.4945H6.37441V16.4914H12.7572V37.4945ZM9.56582 13.6297C7.5166 13.6297 5.86211 11.9367 5.86211 9.84844C5.86211 7.76016 7.5166 6.06719 9.56582 6.06719C11.6066 6.06719 13.2611 7.76016 13.2611 9.84844C13.2611 11.9281 11.6066 13.6297 9.56582 13.6297ZM36.6424 37.4945H30.268V27.2852C30.268 24.8531 30.226 21.7164 26.9506 21.7164C23.6332 21.7164 23.1293 24.3719 23.1293 27.1133V37.4945H16.7633V16.4914H22.8773V19.3617H22.9613C23.8096 17.7117 25.8924 15.9672 28.9914 15.9672C35.4498 15.9672 36.6424 20.3156 36.6424 25.9703V37.4945Z" fill="#F7F7F7"/>
</g>
<defs>
<clipPath id="clip0_302_5920">
<rect width="43" height="44" fill="white"/>
</clipPath>
</defs>
</svg>
