<svg width="60" height="51" viewBox="0 0 60 51" fill="none" xmlns="http://www.w3.org/2000/svg">
<path d="M50.9967 17.4734C50.8642 16.3249 50.5274 15.2588 49.9836 14.2835C49.2659 12.9921 48.2583 11.9563 46.9608 11.1732C45.6634 10.3902 44.1452 10 42.406 10C40.6669 10 39.1901 10.3902 37.8927 11.1732C36.5952 11.9563 35.5877 12.9948 34.8699 14.2835C34.3261 15.2616 33.9893 16.3249 33.8568 17.4734H33.8265C33.8265 17.5448 33.8347 17.6163 33.8375 17.6849C33.8099 17.9872 33.7906 18.2949 33.7906 18.6081V21.0177L33.7851 24.8121L33.774 32.4943C33.774 32.9916 33.6498 33.445 33.3986 33.8599C33.1501 34.2747 32.8161 34.6045 32.4021 34.8517C31.9852 35.099 31.5297 35.2226 31.0301 35.2226C30.5304 35.2226 30.0805 35.099 29.6802 34.8517C29.2772 34.6045 28.9542 34.272 28.703 33.8599C28.4546 33.445 28.3276 32.9916 28.3276 32.4943V19.1384C28.3276 17.5393 27.9659 16.0914 27.2482 14.7972C26.5277 13.5004 25.5174 12.4618 24.2144 11.676C22.9115 10.8902 21.3905 10.4973 19.6431 10.4973C17.8957 10.4973 16.4161 10.8902 15.1131 11.676C13.8102 12.4618 12.7998 13.5031 12.0793 14.7972C11.3589 16.0941 11 17.5421 11 19.1384V39.9375H16.9406V18.435C16.9406 17.9377 17.0648 17.4844 17.3132 17.0695C17.5617 16.6546 17.8874 16.3249 18.2904 16.0776C18.6907 15.8303 19.1434 15.7067 19.6403 15.7067C20.1372 15.7067 20.5955 15.8303 21.0123 16.0776C21.4291 16.3249 21.7604 16.6574 22.0088 17.0695C22.2573 17.4844 22.3815 17.9377 22.3815 18.435V31.7909C22.3815 33.3625 22.7403 34.8023 23.4608 36.1129C24.1813 37.4235 25.1917 38.4703 26.4946 39.2561C27.7976 40.0419 29.3048 40.4348 31.0218 40.4348C32.0128 40.4348 32.9293 40.3029 33.7768 40.0501C34.4227 39.8578 35.03 39.5968 35.5932 39.2561C36.8961 38.4703 37.9065 37.4235 38.6269 36.1129C39.3474 34.8023 39.7063 33.3625 39.7063 31.7909V25.4303C40.54 25.6804 41.4344 25.8095 42.4005 25.8095C44.1341 25.8095 45.6496 25.4193 46.9443 24.639C47.7172 24.1719 48.3853 23.6087 48.9539 22.9575C49.3349 22.5179 49.6716 22.0398 49.9587 21.515C50.5495 20.4407 50.889 19.2785 50.9912 18.0256C51.005 17.8416 51.0022 17.6547 50.9856 17.4706L50.9967 17.4734ZM45.1389 17.9185C45.1389 18.4103 45.0147 18.8636 44.7663 19.2758C44.5178 19.6879 44.1893 20.0149 43.7753 20.2622C43.3612 20.5094 42.9085 20.6331 42.4116 20.6331C41.9147 20.6331 41.4675 20.5094 41.07 20.2622C40.6697 20.0149 40.3467 19.6879 40.101 19.2758C39.8526 18.8636 39.7284 18.413 39.7284 17.9185V17.7262C39.756 17.303 39.8719 16.9074 40.09 16.5474C40.3384 16.1353 40.6614 15.8056 41.0645 15.5583C41.4647 15.311 41.9147 15.1874 42.4116 15.1874C42.9085 15.1874 43.3639 15.311 43.778 15.5583C44.1921 15.8056 44.5233 16.1353 44.7718 16.5474C45.0119 16.9486 45.1334 17.3882 45.1417 17.8663V17.9185H45.1389Z" fill="#F7F7F7"/>
</svg>
