<svg width="41" height="41" viewBox="0 0 41 41" fill="none" xmlns="http://www.w3.org/2000/svg">
<path d="M27.3495 27.291V27.4075H27.3516C27.3253 29.3593 25.7394 30.9347 23.7814 30.9347C22.0003 30.9347 20.541 29.6269 20.2695 27.9222V13.85C20.2695 13.8406 20.2708 13.8314 20.2708 13.822C20.2708 13.8125 20.2695 13.8034 20.2695 13.7939V13.774H20.2684C20.2666 13.5113 20.246 13.2532 20.2151 12.9984C20.0935 11.998 19.7484 11.0698 19.2395 10.2543C18.6792 9.35637 17.9193 8.59597 17.0144 8.04432C16.0412 7.45105 14.9074 7.10156 13.6928 7.06691C13.6285 7.06505 13.567 7.05343 13.5023 7.05343C9.78039 7.05343 6.76238 10.0582 6.73628 13.774H6.7334V34.1281H9.93423V13.774H9.9321C9.95839 11.8223 11.5443 10.2469 13.5023 10.2469C15.2834 10.2469 16.7427 11.5547 17.0143 13.2594V27.3315C17.0143 27.3409 17.0129 27.35 17.0129 27.3595C17.0129 27.369 17.0143 27.3781 17.0143 27.3876V27.4075H17.0153C17.0172 27.6702 17.0377 27.9283 17.0686 28.1831C17.324 30.285 18.5425 32.0845 20.2695 33.1372C21.294 33.7617 22.4934 34.1281 23.7814 34.1281C27.5033 34.1281 30.5213 31.1233 30.5475 27.4075H30.5504V23.8659H27.3496L27.3495 27.291Z" fill="white"/>
<path d="M30.0128 7.05631V7.05343H22.0513L27.3513 10.2543H30.0128V10.2521C31.9645 10.2784 33.5399 11.8643 33.5399 13.8223C33.5399 15.6035 32.2321 17.0628 30.5274 17.3343H27.3256V20.5895H29.9368C29.9462 20.5895 29.9553 20.5909 29.9648 20.5909C29.9743 20.5909 29.9834 20.5895 29.9929 20.5895H30.0128V20.5885C30.2755 20.5866 30.5336 20.5661 30.7884 20.5351C31.3976 20.4611 31.9769 20.2978 32.5244 20.073C32.5533 20.0612 32.5788 20.0432 32.6076 20.031C33.9113 19.4748 35.011 18.5343 35.7425 17.3344C36.367 16.3099 36.7334 15.1104 36.7334 13.8224C36.7334 10.1004 33.7286 7.08242 30.0128 7.05631Z" fill="white"/>
</svg>
