<svg width="1709" height="277" viewBox="0 0 1709 277" fill="none" xmlns="http://www.w3.org/2000/svg">
<path fill-rule="evenodd" clip-rule="evenodd" d="M374.086 24.64C375.601 25.3013 377.222 25.632 378.95 25.632C380.401 25.632 381.798 25.4293 383.142 25.024C384.486 24.5973 385.702 23.8827 386.79 22.88C386.918 22.7307 387.004 22.592 387.046 22.464C387.11 22.3147 387.142 22.1547 387.142 21.984C387.142 21.6427 387.036 21.3653 386.822 21.152C386.609 20.9387 386.353 20.8107 386.054 20.768C385.777 20.7253 385.51 20.8107 385.254 21.024C384.316 21.7493 383.324 22.304 382.278 22.688C381.233 23.072 380.124 23.264 378.95 23.264C377.564 23.264 376.262 22.9973 375.046 22.464C373.852 21.9093 372.796 21.152 371.878 20.192C370.961 19.232 370.236 18.1227 369.702 16.864C369.19 15.6053 368.934 14.2507 368.934 12.8C368.934 11.392 369.19 10.0587 369.702 8.8C370.236 7.54133 370.961 6.432 371.878 5.472C372.796 4.512 373.852 3.75467 375.046 3.2C376.262 2.64533 377.564 2.368 378.95 2.368C380.252 2.368 381.393 2.54933 382.374 2.912C383.356 3.25333 384.262 3.78667 385.094 4.512C385.308 4.68267 385.521 4.77867 385.734 4.8C385.969 4.82133 386.172 4.78933 386.342 4.704C386.513 4.61867 386.62 4.49067 386.662 4.32C386.833 4.23467 386.961 4.10667 387.046 3.936C387.132 3.744 387.153 3.552 387.11 3.36C387.089 3.14667 386.982 2.96533 386.79 2.816C385.617 1.83467 384.401 1.12 383.142 0.671999C381.884 0.224 380.486 0 378.95 0C377.201 0 375.569 0.341333 374.054 1.024C372.561 1.68533 371.238 2.60267 370.086 3.776C368.956 4.94933 368.07 6.31467 367.43 7.872C366.812 9.408 366.502 11.0507 366.502 12.8C366.502 14.5707 366.822 16.2347 367.462 17.792C368.102 19.328 368.988 20.6933 370.118 21.888C371.27 23.0613 372.593 23.9787 374.086 24.64ZM436.424 24.096V14.528C436.424 13.5253 436.691 12.6613 437.224 11.936C437.779 11.2106 438.515 10.6773 439.432 10.336C440.371 9.9733 441.438 9.8453 442.632 9.95197C442.995 9.9733 443.315 9.99463 443.592 10.016C443.891 10.0373 444.136 9.99463 444.328 9.88797C444.542 9.7813 444.691 9.56797 444.776 9.24797C444.904 8.71463 444.702 8.3093 444.168 8.03197C443.635 7.75463 442.878 7.61597 441.896 7.61597C440.659 7.61597 439.528 7.91463 438.504 8.51197C437.692 8.99593 436.998 9.62693 436.424 10.405V9.02397C436.424 8.63997 436.318 8.3413 436.104 8.12797C435.891 7.91463 435.592 7.80797 435.208 7.80797C434.824 7.80797 434.526 7.91463 434.312 8.12797C434.099 8.3413 433.992 8.63997 433.992 9.02397V24.096C433.992 24.48 434.099 24.7786 434.312 24.992C434.526 25.2053 434.824 25.312 435.208 25.312C435.592 25.312 435.891 25.2053 436.104 24.992C436.318 24.7786 436.424 24.48 436.424 24.096ZM473.835 25.472C472.107 25.472 470.571 25.0986 469.227 24.352C467.904 23.584 466.859 22.528 466.091 21.184C465.344 19.84 464.971 18.304 464.971 16.576C464.971 14.8266 465.323 13.2906 466.027 11.9679C466.752 10.624 467.744 9.56795 469.003 8.79995C470.261 8.03195 471.712 7.64795 473.355 7.64795C474.976 7.64795 476.384 8.02128 477.579 8.76795C478.795 9.49328 479.733 10.5066 480.395 11.808C481.056 13.1093 481.387 14.592 481.387 16.256C481.387 16.5973 481.28 16.8746 481.067 17.088C480.853 17.28 480.576 17.3759 480.235 17.3759H467.311C467.403 18.3545 467.669 19.2398 468.107 20.0319C468.683 21.0346 469.461 21.8239 470.443 22.4C471.424 22.976 472.555 23.264 473.835 23.264C474.603 23.264 475.371 23.136 476.139 22.88C476.928 22.6026 477.557 22.2613 478.027 21.856C478.261 21.664 478.528 21.568 478.827 21.568C479.125 21.5466 479.381 21.6213 479.595 21.792C479.872 22.048 480.011 22.3253 480.011 22.624C480.032 22.9226 479.915 23.1786 479.659 23.392C478.955 23.9893 478.059 24.4906 476.971 24.896C475.883 25.28 474.837 25.472 473.835 25.472ZM468.011 13.12C467.683 13.7894 467.465 14.5254 467.356 15.3279H479.077C478.994 14.482 478.783 13.7033 478.443 12.992C477.973 12.0106 477.301 11.2426 476.427 10.688C475.573 10.1333 474.549 9.85595 473.355 9.85595C472.139 9.85595 471.072 10.144 470.155 10.7199C469.237 11.2959 468.523 12.096 468.011 13.12ZM431.648 79.4721C429.963 79.4721 428.448 79.0881 427.104 78.3201C425.76 77.5307 424.693 76.4641 423.904 75.1201C423.136 73.7761 422.752 72.2507 422.752 70.5441C422.752 68.8587 423.125 67.3441 423.872 66.0001C424.64 64.6561 425.675 63.6001 426.976 62.8321C428.277 62.0427 429.749 61.6481 431.392 61.6481C432.821 61.6481 434.112 61.9574 435.264 62.5761C436.416 63.1734 437.344 63.9734 438.048 64.9761V55.5681C438.048 55.1841 438.165 54.8854 438.4 54.6721C438.635 54.4374 438.933 54.3201 439.296 54.3201C439.659 54.3201 439.957 54.4374 440.192 54.6721C440.427 54.8854 440.544 55.1841 440.544 55.5681V70.6721C440.501 72.3361 440.085 73.8401 439.296 75.1841C438.528 76.5067 437.472 77.5521 436.128 78.3201C434.805 79.0881 433.312 79.4721 431.648 79.4721ZM431.648 77.2321C432.885 77.2321 433.984 76.9441 434.944 76.3681C435.925 75.7707 436.693 74.9707 437.248 73.9681C437.824 72.9654 438.112 71.8241 438.112 70.5441C438.112 69.2854 437.824 68.1547 437.248 67.1521C436.693 66.1281 435.925 65.3281 434.944 64.7521C433.984 64.1761 432.885 63.8881 431.648 63.8881C430.432 63.8881 429.333 64.1761 428.352 64.7521C427.371 65.3281 426.592 66.1281 426.016 67.1521C425.44 68.1547 425.152 69.2854 425.152 70.5441C425.152 71.8241 425.44 72.9654 426.016 73.9681C426.592 74.9707 427.371 75.7707 428.352 76.3681C429.333 76.9441 430.432 77.2321 431.648 77.2321ZM255.68 114.96C255.915 115.195 256.213 115.312 256.576 115.312H262.336C264.171 115.312 265.845 115.013 267.36 114.416C268.896 113.797 270.219 112.933 271.328 111.824C272.437 110.693 273.291 109.371 273.888 107.856C274.507 106.32 274.816 104.635 274.816 102.8C274.816 100.965 274.507 99.2907 273.888 97.7761C273.291 96.2614 272.437 94.9494 271.328 93.8401C270.219 92.7094 268.896 91.8454 267.36 91.2481C265.845 90.6294 264.171 90.3201 262.336 90.3201H256.576C256.213 90.3201 255.915 90.4374 255.68 90.6721C255.445 90.9067 255.328 91.2054 255.328 91.5681V114.064C255.328 114.427 255.445 114.725 255.68 114.96ZM262.336 113.072H257.824V92.5601H262.336C264.299 92.5601 266.027 92.9974 267.52 93.8721C269.035 94.7467 270.219 95.9627 271.072 97.5201C271.925 99.0561 272.352 100.816 272.352 102.8C272.352 104.784 271.925 106.555 271.072 108.112C270.219 109.648 269.035 110.864 267.52 111.76C266.027 112.635 264.299 113.072 262.336 113.072ZM336.855 114.608C337.538 115.077 338.306 115.312 339.159 115.312H339.575C340.002 115.312 340.343 115.205 340.599 114.992C340.876 114.757 341.015 114.459 341.015 114.096C341.015 113.733 340.919 113.445 340.727 113.232C340.535 112.997 340.279 112.88 339.959 112.88H339.159C338.583 112.88 338.103 112.592 337.719 112.016C337.357 111.44 337.175 110.693 337.175 109.776V91.5361C337.175 91.1734 337.058 90.8854 336.823 90.6721C336.61 90.4374 336.322 90.3201 335.959 90.3201C335.596 90.3201 335.298 90.4374 335.063 90.6721C334.85 90.8854 334.743 91.1734 334.743 91.5361V109.776C334.743 110.864 334.924 111.824 335.287 112.656C335.671 113.488 336.194 114.139 336.855 114.608ZM466.2 115.312C465.069 115.312 464.056 115.045 463.16 114.512C462.285 113.979 461.592 113.253 461.08 112.336C460.568 111.397 460.312 110.331 460.312 109.136V100.592H458.232C457.912 100.592 457.645 100.496 457.432 100.304C457.218 100.091 457.112 99.8347 457.112 99.536C457.112 99.216 457.218 98.96 457.432 98.768C457.645 98.5547 457.912 98.448 458.232 98.448H460.312V93.488C460.312 93.1253 460.418 92.8267 460.632 92.592C460.866 92.3573 461.165 92.24 461.528 92.24C461.89 92.24 462.189 92.3573 462.424 92.592C462.658 92.8267 462.776 93.1253 462.776 93.488V98.448H466.392C466.712 98.448 466.978 98.5547 467.192 98.768C467.405 98.96 467.512 99.216 467.512 99.536C467.512 99.8347 467.405 100.091 467.192 100.304C466.978 100.496 466.712 100.592 466.392 100.592H462.776V109.136C462.776 110.224 463.096 111.12 463.736 111.824C464.376 112.507 465.197 112.848 466.2 112.848H467.064C467.405 112.848 467.682 112.965 467.896 113.2C468.109 113.435 468.216 113.733 468.216 114.096C468.216 114.459 468.088 114.757 467.832 114.992C467.576 115.205 467.256 115.312 466.872 115.312H466.2ZM452.703 115.312C452.341 115.312 452.042 115.195 451.807 114.96C451.573 114.725 451.455 114.437 451.455 114.096V105.776C451.455 104.453 451.199 103.365 450.687 102.512C450.197 101.659 449.514 101.019 448.639 100.592C447.786 100.165 446.815 99.952 445.727 99.952C444.682 99.952 443.733 100.155 442.879 100.56C442.047 100.965 441.386 101.52 440.895 102.224C440.405 102.928 440.159 103.728 440.159 104.624V114.096C440.159 114.459 440.042 114.757 439.807 114.992C439.594 115.205 439.306 115.312 438.943 115.312C438.559 115.312 438.25 115.205 438.015 114.992C437.802 114.757 437.695 114.459 437.695 114.096V99.056C437.695 98.672 437.802 98.3733 438.015 98.16C438.25 97.9253 438.559 97.808 438.943 97.808C439.306 97.808 439.594 97.9253 439.807 98.16C440.042 98.3733 440.159 98.672 440.159 99.056V100.147C440.732 99.497 441.415 98.9628 442.207 98.544C443.338 97.9253 444.597 97.616 445.983 97.616C447.498 97.616 448.853 97.936 450.047 98.576C451.242 99.1946 452.181 100.112 452.863 101.328C453.567 102.544 453.919 104.027 453.919 105.776V114.096C453.919 114.437 453.802 114.725 453.567 114.96C453.333 115.195 453.045 115.312 452.703 115.312ZM421.367 114.352C422.711 115.099 424.247 115.472 425.975 115.472C426.978 115.472 428.023 115.28 429.111 114.896C430.199 114.491 431.095 113.989 431.799 113.392C432.055 113.179 432.173 112.923 432.151 112.624C432.151 112.325 432.013 112.048 431.735 111.792C431.522 111.621 431.266 111.547 430.967 111.568C430.669 111.568 430.402 111.664 430.167 111.856C429.698 112.261 429.069 112.603 428.279 112.88C427.511 113.136 426.743 113.264 425.975 113.264C424.695 113.264 423.565 112.976 422.583 112.4C421.602 111.824 420.823 111.035 420.247 110.032C419.809 109.24 419.544 108.354 419.452 107.376H432.375C432.717 107.376 432.994 107.28 433.207 107.088C433.421 106.875 433.527 106.597 433.527 106.256C433.527 104.592 433.197 103.109 432.535 101.808C431.874 100.507 430.935 99.4933 429.719 98.768C428.525 98.0213 427.117 97.6479 425.495 97.6479C423.853 97.6479 422.402 98.032 421.143 98.7999C419.885 99.5679 418.893 100.624 418.167 101.968C417.463 103.291 417.111 104.827 417.111 106.576C417.111 108.304 417.485 109.84 418.231 111.184C418.999 112.528 420.045 113.584 421.367 114.352ZM419.497 105.328C419.606 104.525 419.824 103.789 420.151 103.12C420.663 102.096 421.378 101.296 422.295 100.72C423.213 100.144 424.279 99.8559 425.495 99.8559C426.69 99.8559 427.714 100.133 428.567 100.688C429.442 101.243 430.114 102.011 430.583 102.992C430.924 103.703 431.135 104.482 431.217 105.328H419.497ZM411.375 115.312C411.012 115.312 410.713 115.205 410.479 114.992C410.244 114.757 410.127 114.459 410.127 114.096V104.88C410.127 103.365 409.732 102.171 408.943 101.296C408.153 100.4 407.14 99.952 405.903 99.952C404.58 99.952 403.492 100.4 402.639 101.296C401.816 102.16 401.411 103.317 401.422 104.764L401.422 104.785L401.422 104.816L401.423 104.88V114.096C401.423 114.459 401.305 114.757 401.071 114.992C400.857 115.205 400.569 115.312 400.207 115.312C399.844 115.312 399.545 115.205 399.311 114.992C399.076 114.757 398.959 114.459 398.959 114.096V104.88C398.959 103.365 398.564 102.171 397.775 101.296C396.985 100.4 395.972 99.952 394.735 99.952C393.412 99.952 392.324 100.389 391.471 101.264C390.617 102.117 390.191 103.237 390.191 104.624V114.096C390.191 114.459 390.073 114.757 389.839 114.992C389.625 115.205 389.337 115.312 388.975 115.312C388.591 115.312 388.281 115.205 388.047 114.992C387.833 114.757 387.727 114.459 387.727 114.096V99.056C387.727 98.6933 387.833 98.3946 388.047 98.16C388.281 97.9253 388.591 97.808 388.975 97.808C389.337 97.808 389.625 97.9253 389.839 98.16C390.073 98.3946 390.191 98.6933 390.191 99.056V99.7523C390.616 99.2636 391.107 98.8502 391.663 98.512C392.644 97.9146 393.753 97.616 394.991 97.616C396.249 97.616 397.359 97.9146 398.319 98.512C399.176 99.0341 399.863 99.7438 400.379 100.641C400.95 99.7438 401.693 99.0341 402.607 98.512C403.652 97.9146 404.836 97.616 406.159 97.616C407.417 97.616 408.527 97.9146 409.487 98.512C410.468 99.1093 411.225 99.952 411.759 101.04C412.313 102.128 412.591 103.408 412.591 104.88V114.096C412.591 114.459 412.473 114.757 412.239 114.992C412.025 115.205 411.737 115.312 411.375 115.312ZM365.422 122.448C365.656 122.683 365.966 122.8 366.35 122.8C366.712 122.8 367 122.683 367.214 122.448C367.448 122.235 367.566 121.936 367.566 121.552V112.144C368.27 113.147 369.198 113.957 370.35 114.576C371.523 115.173 372.824 115.472 374.254 115.472C375.896 115.472 377.368 115.088 378.67 114.32C379.971 113.531 380.995 112.464 381.742 111.12C382.51 109.776 382.894 108.261 382.894 106.576C382.894 104.869 382.499 103.344 381.71 102C380.942 100.656 379.886 99.5999 378.542 98.8319C377.198 98.0426 375.672 97.6479 373.966 97.6479C372.302 97.6479 370.798 98.032 369.454 98.7999C368.131 99.5679 367.075 100.624 366.286 101.968C365.518 103.291 365.123 104.784 365.102 106.448V121.552C365.102 121.936 365.208 122.235 365.422 122.448ZM377.294 112.368C376.312 112.944 375.203 113.232 373.966 113.232C372.75 113.232 371.651 112.944 370.67 112.368C369.688 111.792 368.92 111.003 368.366 110C367.811 108.976 367.534 107.835 367.534 106.576C367.534 105.296 367.811 104.155 368.366 103.152C368.92 102.149 369.688 101.36 370.67 100.784C371.651 100.187 372.75 99.8879 373.966 99.8879C375.203 99.8879 376.312 100.187 377.294 100.784C378.275 101.36 379.043 102.149 379.598 103.152C380.174 104.155 380.462 105.296 380.462 106.576C380.462 107.835 380.174 108.976 379.598 110C379.043 111.003 378.275 111.792 377.294 112.368ZM351.414 115.472C349.707 115.472 348.182 115.088 346.838 114.32C345.494 113.552 344.438 112.496 343.67 111.152C342.902 109.808 342.518 108.283 342.518 106.576C342.518 104.848 342.902 103.312 343.67 101.968C344.438 100.624 345.494 99.5679 346.838 98.7999C348.182 98.032 349.707 97.6479 351.414 97.6479C353.12 97.6479 354.635 98.032 355.958 98.7999C357.302 99.5679 358.358 100.624 359.126 101.968C359.894 103.312 360.288 104.848 360.31 106.576C360.31 108.283 359.915 109.808 359.126 111.152C358.358 112.496 357.302 113.552 355.958 114.32C354.635 115.088 353.12 115.472 351.414 115.472ZM351.414 113.232C352.651 113.232 353.76 112.944 354.742 112.368C355.723 111.792 356.491 111.003 357.046 110C357.6 108.997 357.878 107.856 357.878 106.576C357.878 105.296 357.6 104.155 357.046 103.152C356.491 102.128 355.723 101.328 354.742 100.752C353.76 100.176 352.651 99.8879 351.414 99.8879C350.176 99.8879 349.067 100.176 348.086 100.752C347.104 101.328 346.326 102.128 345.75 103.152C345.195 104.155 344.918 105.296 344.918 106.576C344.918 107.856 345.195 108.997 345.75 110C346.326 111.003 347.104 111.792 348.086 112.368C349.067 112.944 350.176 113.232 351.414 113.232ZM323.663 115.472C321.935 115.472 320.399 115.099 319.055 114.352C317.732 113.584 316.687 112.528 315.919 111.184C315.172 109.84 314.799 108.304 314.799 106.576C314.799 104.827 315.151 103.291 315.855 101.968C316.58 100.624 317.572 99.5679 318.831 98.7999C320.089 98.032 321.54 97.6479 323.183 97.6479C324.804 97.6479 326.212 98.0213 327.407 98.768C328.623 99.4933 329.562 100.507 330.223 101.808C330.884 103.109 331.215 104.592 331.215 106.256C331.215 106.597 331.108 106.875 330.895 107.088C330.682 107.28 330.404 107.376 330.063 107.376H317.14C317.232 108.354 317.497 109.24 317.935 110.032C318.511 111.035 319.289 111.824 320.271 112.4C321.252 112.976 322.383 113.264 323.663 113.264C324.431 113.264 325.199 113.136 325.967 112.88C326.756 112.603 327.385 112.261 327.855 111.856C328.089 111.664 328.356 111.568 328.655 111.568C328.953 111.547 329.21 111.621 329.423 111.792C329.7 112.048 329.839 112.325 329.839 112.624C329.86 112.923 329.743 113.179 329.487 113.392C328.783 113.989 327.887 114.491 326.799 114.896C325.711 115.28 324.665 115.472 323.663 115.472ZM317.839 103.12C317.511 103.789 317.293 104.525 317.184 105.328H328.905C328.822 104.482 328.611 103.703 328.271 102.992C327.802 102.011 327.13 101.243 326.255 100.688C325.401 100.133 324.378 99.8559 323.183 99.8559C321.967 99.8559 320.9 100.144 319.983 100.72C319.065 101.296 318.351 102.096 317.839 103.12ZM303.496 114.48C303.752 115.035 304.136 115.312 304.648 115.312C305.203 115.312 305.608 115.035 305.864 114.48L312.872 99.376C313 99.12 313.011 98.8534 312.904 98.576C312.798 98.2774 312.595 98.0534 312.296 97.904C311.998 97.776 311.688 97.7654 311.368 97.872C311.07 97.9574 310.856 98.1494 310.728 98.4481L304.66 111.77L298.504 98.4481C298.355 98.1707 298.142 97.9787 297.864 97.872C297.587 97.7654 297.299 97.7867 297 97.9361C296.68 98.0854 296.467 98.2987 296.36 98.576C296.254 98.8534 296.264 99.1307 296.392 99.4081L303.496 114.48ZM287.569 115.472C285.841 115.472 284.305 115.099 282.961 114.352C281.638 113.584 280.593 112.528 279.825 111.184C279.078 109.84 278.705 108.304 278.705 106.576C278.705 104.827 279.057 103.291 279.761 101.968C280.486 100.624 281.478 99.5679 282.737 98.7999C283.996 98.032 285.446 97.6479 287.089 97.6479C288.71 97.6479 290.118 98.0213 291.313 98.768C292.529 99.4933 293.468 100.507 294.129 101.808C294.79 103.109 295.121 104.592 295.121 106.256C295.121 106.597 295.014 106.875 294.801 107.088C294.588 107.28 294.31 107.376 293.969 107.376H281.046C281.138 108.354 281.403 109.24 281.841 110.032C282.417 111.035 283.196 111.824 284.177 112.4C285.158 112.976 286.289 113.264 287.569 113.264C288.337 113.264 289.105 113.136 289.873 112.88C290.662 112.603 291.292 112.261 291.761 111.856C291.996 111.664 292.262 111.568 292.561 111.568C292.86 111.547 293.116 111.621 293.329 111.792C293.606 112.048 293.745 112.325 293.745 112.624C293.766 112.923 293.649 113.179 293.393 113.392C292.689 113.989 291.793 114.491 290.705 114.896C289.617 115.28 288.572 115.472 287.569 115.472ZM281.745 103.12C281.417 103.789 281.199 104.525 281.09 105.328H292.811C292.729 104.482 292.517 103.703 292.177 102.992C291.708 102.011 291.036 101.243 290.161 100.688C289.308 100.133 288.284 99.8559 287.089 99.8559C285.873 99.8559 284.806 100.144 283.889 100.72C282.972 101.296 282.257 102.096 281.745 103.12ZM416.135 78.96C416.37 79.1946 416.669 79.312 417.031 79.312C417.373 79.312 417.661 79.1946 417.895 78.96C418.13 78.7253 418.247 78.4373 418.247 78.096V69.776C418.247 68.0266 417.895 66.544 417.191 65.328C416.509 64.112 415.57 63.1946 414.375 62.576C413.181 61.936 411.826 61.616 410.311 61.616C408.925 61.616 407.666 61.9253 406.535 62.544C405.743 62.9628 405.06 63.497 404.487 64.1466V63.056C404.487 62.672 404.37 62.3733 404.135 62.16C403.922 61.9253 403.634 61.808 403.271 61.808C402.887 61.808 402.578 61.9253 402.343 62.16C402.13 62.3733 402.023 62.672 402.023 63.056V78.096C402.023 78.4586 402.13 78.7573 402.343 78.992C402.578 79.2053 402.887 79.312 403.271 79.312C403.634 79.312 403.922 79.2053 404.135 78.992C404.37 78.7573 404.487 78.4586 404.487 78.096V68.624C404.487 67.728 404.733 66.928 405.223 66.224C405.714 65.52 406.375 64.9653 407.207 64.56C408.061 64.1546 409.01 63.952 410.055 63.952C411.143 63.952 412.114 64.1653 412.967 64.592C413.842 65.0186 414.525 65.6586 415.015 66.512C415.527 67.3653 415.783 68.4533 415.783 69.776V78.096C415.783 78.4373 415.901 78.7253 416.135 78.96ZM381.435 79.3121C381.073 79.3121 380.774 79.1947 380.539 78.9601C380.305 78.7254 380.188 78.4267 380.188 78.0641V55.5681C380.188 55.2054 380.305 54.9067 380.539 54.6721C380.774 54.4374 381.073 54.3201 381.435 54.3201H396.443C396.785 54.3201 397.073 54.4374 397.307 54.6721C397.564 54.8854 397.691 55.1734 397.691 55.5361C397.691 55.8561 397.564 56.1334 397.307 56.3681C397.073 56.6027 396.785 56.7201 396.443 56.7201H382.684V65.5521H392.7C393.062 65.5521 393.361 65.6694 393.596 65.9041C393.83 66.1387 393.948 66.4267 393.948 66.7681C393.948 67.1094 393.83 67.3974 393.596 67.6321C393.361 67.8667 393.062 67.9841 392.7 67.9841H382.684V76.9121H396.443C396.785 76.9121 397.073 77.0294 397.307 77.2641C397.564 77.4987 397.691 77.7761 397.691 78.0961C397.691 78.4587 397.564 78.7574 397.307 78.9921C397.073 79.2054 396.785 79.3121 396.443 79.3121H381.435ZM361.425 78.512C362.321 79.0453 363.335 79.312 364.465 79.312H365.137C365.521 79.312 365.841 79.2053 366.097 78.992C366.353 78.7573 366.481 78.4587 366.481 78.096C366.481 77.7333 366.375 77.4347 366.161 77.2C365.948 76.9653 365.671 76.848 365.329 76.848H364.465C363.463 76.848 362.641 76.5067 362.001 75.824C361.361 75.12 361.041 74.224 361.041 73.136V64.592H364.657C364.977 64.592 365.244 64.496 365.457 64.304C365.671 64.0907 365.777 63.8347 365.777 63.536C365.777 63.216 365.671 62.96 365.457 62.768C365.244 62.5547 364.977 62.448 364.657 62.448H361.041V57.488C361.041 57.1253 360.924 56.8267 360.689 56.592C360.455 56.3573 360.156 56.24 359.793 56.24C359.431 56.24 359.132 56.3573 358.897 56.592C358.684 56.8267 358.577 57.1253 358.577 57.488V62.448H356.497C356.177 62.448 355.911 62.5547 355.697 62.768C355.484 62.96 355.377 63.216 355.377 63.536C355.377 63.8347 355.484 64.0907 355.697 64.304C355.911 64.496 356.177 64.592 356.497 64.592H358.577V73.136C358.577 74.3307 358.833 75.3973 359.345 76.336C359.857 77.2533 360.551 77.9787 361.425 78.512ZM350.969 79.312C350.606 79.312 350.308 79.1946 350.073 78.96C349.838 78.7253 349.721 78.4373 349.721 78.096V69.776C349.721 68.4533 349.465 67.3653 348.953 66.512C348.462 65.6586 347.78 65.0186 346.905 64.592C346.052 64.1653 345.081 63.952 343.993 63.952C342.948 63.952 341.998 64.1546 341.145 64.56C340.313 64.9653 339.652 65.52 339.161 66.224C338.67 66.928 338.425 67.728 338.425 68.624V78.096C338.425 78.4586 338.308 78.7573 338.073 78.992C337.86 79.2053 337.572 79.312 337.209 79.312C336.825 79.312 336.516 79.2053 336.281 78.992C336.068 78.7573 335.961 78.4586 335.961 78.096V63.056C335.961 62.672 336.068 62.3733 336.281 62.16C336.516 61.9253 336.825 61.808 337.209 61.808C337.572 61.808 337.86 61.9253 338.073 62.16C338.308 62.3733 338.425 62.672 338.425 63.056V64.1466C338.997 63.497 339.68 62.9628 340.473 62.544C341.604 61.9253 342.862 61.616 344.249 61.616C345.764 61.616 347.118 61.936 348.313 62.576C349.508 63.1946 350.446 64.112 351.129 65.328C351.833 66.544 352.185 68.0266 352.185 69.776V78.096C352.185 78.4373 352.068 78.7253 351.833 78.96C351.598 79.1946 351.31 79.312 350.969 79.312ZM317.697 78.3199C319.041 79.088 320.566 79.472 322.273 79.472C323.98 79.472 325.494 79.088 326.817 78.3199C328.161 77.5519 329.217 76.4959 329.985 75.1519C330.774 73.808 331.169 72.2826 331.169 70.576C331.148 68.848 330.753 67.312 329.985 65.9679C329.217 64.6239 328.161 63.568 326.817 62.7999C325.494 62.0319 323.98 61.6479 322.273 61.6479C320.566 61.6479 319.041 62.0319 317.697 62.7999C316.353 63.568 315.297 64.6239 314.529 65.9679C313.761 67.312 313.377 68.848 313.377 70.576C313.377 72.2826 313.761 73.808 314.529 75.1519C315.297 76.4959 316.353 77.5519 317.697 78.3199ZM325.601 76.368C324.62 76.9439 323.51 77.2319 322.273 77.2319C321.036 77.2319 319.926 76.9439 318.945 76.368C317.964 75.792 317.185 75.0026 316.609 74C316.054 72.9973 315.777 71.8559 315.777 70.576C315.777 69.296 316.054 68.1546 316.609 67.1519C317.185 66.128 317.964 65.3279 318.945 64.752C319.926 64.1759 321.036 63.888 322.273 63.888C323.51 63.888 324.62 64.1759 325.601 64.752C326.582 65.3279 327.35 66.128 327.905 67.1519C328.46 68.1546 328.737 69.296 328.737 70.576C328.737 71.8559 328.46 72.9973 327.905 74C327.35 75.0026 326.582 75.792 325.601 76.368ZM303.362 78.096V68.528C303.362 67.5253 303.628 66.6613 304.162 65.936C304.716 65.2106 305.452 64.6773 306.37 64.336C307.308 63.9733 308.375 63.8453 309.57 63.952C309.932 63.9733 310.252 63.9946 310.53 64.016C310.828 64.0373 311.074 63.9946 311.266 63.888C311.479 63.7813 311.628 63.568 311.714 63.248C311.842 62.7146 311.639 62.3093 311.106 62.032C310.572 61.7546 309.815 61.616 308.834 61.616C307.596 61.616 306.466 61.9146 305.442 62.512C304.629 62.9959 303.936 63.6269 303.362 64.405V63.024C303.362 62.64 303.255 62.3413 303.042 62.128C302.828 61.9146 302.53 61.808 302.146 61.808C301.762 61.808 301.463 61.9146 301.25 62.128C301.036 62.3413 300.93 62.64 300.93 63.024V78.096C300.93 78.48 301.036 78.7786 301.25 78.992C301.463 79.2053 301.762 79.312 302.146 79.312C302.53 79.312 302.828 79.2053 303.042 78.992C303.255 78.7786 303.362 78.48 303.362 78.096ZM279.618 78.9601C279.874 79.1947 280.172 79.3121 280.514 79.3121C280.876 79.3121 281.175 79.1947 281.41 78.9601C281.644 78.7041 281.762 78.4054 281.762 78.0641V67.9841H291.778C292.14 67.9841 292.439 67.8667 292.674 67.6321C292.908 67.3974 293.026 67.1094 293.026 66.7681C293.026 66.4267 292.908 66.1387 292.674 65.9041C292.439 65.6694 292.14 65.5521 291.778 65.5521H281.762V56.7201H295.522C295.884 56.7201 296.183 56.6027 296.418 56.3681C296.652 56.1334 296.77 55.8561 296.77 55.5361C296.77 55.1734 296.652 54.8854 296.418 54.6721C296.183 54.4374 295.884 54.3201 295.522 54.3201H280.514C280.151 54.3201 279.852 54.4374 279.618 54.6721C279.383 54.9067 279.266 55.2054 279.266 55.5681V78.0641C279.266 78.4054 279.383 78.7041 279.618 78.9601ZM451.017 24.832C452.254 25.2586 453.502 25.472 454.761 25.472C456.105 25.472 457.289 25.2586 458.313 24.832C459.358 24.4053 460.169 23.8186 460.745 23.072C461.342 22.304 461.641 21.4186 461.641 20.416C461.641 19.6266 461.438 18.9013 461.033 18.24C460.649 17.5573 459.987 16.9706 459.049 16.4799C458.131 15.9679 456.873 15.5839 455.273 15.3279C454.099 15.1359 453.182 14.9013 452.521 14.624C451.881 14.3466 451.422 14.0266 451.145 13.6639C450.889 13.3013 450.761 12.8746 450.761 12.384C450.761 11.6586 451.113 11.0613 451.817 10.592C452.521 10.1013 453.459 9.85595 454.633 9.85595C455.55 9.85595 456.361 10.0053 457.065 10.304C457.769 10.5813 458.387 11.0293 458.921 11.648C459.155 11.9039 459.433 12.0639 459.753 12.1279C460.094 12.1706 460.393 12.1173 460.649 11.9679C460.947 11.7759 461.118 11.5306 461.161 11.2319C461.203 10.9333 461.118 10.6453 460.905 10.368C460.265 9.53595 459.422 8.87462 458.377 8.38395C457.353 7.89328 456.126 7.64795 454.697 7.64795C453.545 7.64795 452.489 7.82928 451.529 8.19195C450.569 8.55462 449.801 9.09862 449.225 9.82395C448.649 10.5493 448.361 11.4559 448.361 12.544C448.361 13.7173 448.862 14.7306 449.865 15.584C450.867 16.4373 452.446 17.0346 454.601 17.3759C456.265 17.6533 457.459 18.048 458.185 18.5599C458.91 19.0506 459.273 19.68 459.273 20.448C459.251 21.216 458.889 21.8773 458.185 22.4319C457.481 22.9653 456.339 23.232 454.761 23.232C453.737 23.232 452.798 23.072 451.945 22.752C451.113 22.432 450.441 21.9733 449.929 21.3759C449.715 21.1413 449.449 21.0026 449.129 20.9599C448.809 20.9173 448.499 21.0026 448.201 21.216C447.923 21.4506 447.763 21.728 447.721 22.048C447.678 22.368 447.774 22.656 448.009 22.912C448.777 23.7653 449.779 24.4053 451.017 24.832ZM415.888 24.5761C417.083 25.1948 418.437 25.5041 419.952 25.5041C421.339 25.5041 422.597 25.2054 423.728 24.6081C424.528 24.1703 425.211 23.6255 425.776 22.974V24.0641C425.776 24.4481 425.883 24.7574 426.096 24.9921C426.331 25.2054 426.629 25.3121 426.992 25.3121C427.355 25.3121 427.653 25.2054 427.888 24.9921C428.123 24.7574 428.24 24.4481 428.24 24.0641V9.02411C428.24 8.66144 428.123 8.37344 427.888 8.16011C427.653 7.92544 427.355 7.80811 426.992 7.80811C426.629 7.80811 426.331 7.92544 426.096 8.16011C425.883 8.37344 425.776 8.66144 425.776 9.02411V18.4961C425.776 19.3921 425.531 20.1921 425.04 20.8961C424.549 21.6001 423.877 22.1548 423.024 22.5601C422.192 22.9654 421.253 23.1681 420.208 23.1681C419.12 23.1681 418.139 22.9548 417.264 22.5281C416.411 22.1014 415.728 21.4614 415.216 20.6081C414.725 19.7548 414.48 18.6668 414.48 17.3441V9.02411C414.48 8.68277 414.363 8.39477 414.128 8.16011C413.893 7.92544 413.595 7.80811 413.232 7.80811C412.891 7.80811 412.603 7.92544 412.368 8.16011C412.133 8.39477 412.016 8.68277 412.016 9.02411V17.3441C412.016 19.0934 412.357 20.5761 413.04 21.7921C413.744 23.0081 414.693 23.9361 415.888 24.5761ZM398.648 25.472C396.941 25.472 395.416 25.0879 394.072 24.32C392.728 23.552 391.672 22.496 390.904 21.152C390.136 19.808 389.752 18.2826 389.752 16.576C389.752 14.848 390.136 13.312 390.904 11.9679C391.672 10.624 392.728 9.56795 394.072 8.79995C395.416 8.03195 396.941 7.64795 398.648 7.64795C400.355 7.64795 401.869 8.03195 403.192 8.79995C404.536 9.56795 405.592 10.624 406.36 11.9679C407.128 13.312 407.523 14.848 407.544 16.576C407.544 18.2826 407.149 19.808 406.36 21.152C405.592 22.496 404.536 23.552 403.192 24.32C401.869 25.0879 400.355 25.472 398.648 25.472ZM398.648 23.232C399.885 23.232 400.995 22.944 401.976 22.368C402.957 21.792 403.725 21.0026 404.28 20C404.835 18.9973 405.112 17.8559 405.112 16.576C405.112 15.296 404.835 14.1546 404.28 13.1519C403.725 12.1279 402.957 11.3279 401.976 10.752C400.995 10.176 399.885 9.88795 398.648 9.88795C397.411 9.88795 396.301 10.176 395.32 10.752C394.339 11.3279 393.56 12.1279 392.984 13.1519C392.429 14.1546 392.152 15.296 392.152 16.576C392.152 17.8559 392.429 18.9973 392.984 20C393.56 21.0026 394.339 21.792 395.32 22.368C396.301 22.944 397.411 23.232 398.648 23.232ZM343.5 32.9279C343.33 32.9279 343.138 32.8853 342.924 32.7999C342.199 32.4799 341.996 31.9679 342.316 31.2639L345.498 24.2497L345.484 24.2239L338.348 9.43993C338.199 9.11993 338.178 8.82126 338.284 8.54393C338.391 8.26659 338.604 8.05326 338.924 7.90393C339.244 7.75459 339.543 7.73326 339.82 7.83993C340.098 7.92526 340.311 8.12793 340.46 8.44793L346.698 21.6061L352.652 8.47993C352.972 7.79726 353.484 7.60526 354.188 7.90393C354.914 8.20259 355.116 8.70393 354.796 9.40793L344.428 32.1919C344.215 32.6826 343.906 32.9279 343.5 32.9279ZM332.932 24.992C333.166 25.2053 333.465 25.312 333.828 25.312C334.19 25.312 334.478 25.2053 334.692 24.992C334.926 24.7573 335.044 24.4586 335.044 24.096V14.88C335.044 13.408 334.766 12.128 334.212 11.04C333.678 9.95197 332.921 9.1093 331.94 8.51197C330.98 7.91463 329.87 7.61597 328.612 7.61597C327.289 7.61597 326.105 7.91463 325.06 8.51197C324.146 9.03415 323.403 9.74383 322.832 10.641C322.316 9.74383 321.63 9.03415 320.772 8.51197C319.812 7.91463 318.702 7.61597 317.444 7.61597C316.206 7.61597 315.097 7.91463 314.116 8.51197C313.56 8.85018 313.069 9.26363 312.644 9.75232V9.05597C312.644 8.6933 312.526 8.39463 312.292 8.15997C312.078 7.9253 311.79 7.80797 311.428 7.80797C311.044 7.80797 310.734 7.9253 310.5 8.15997C310.286 8.39463 310.18 8.6933 310.18 9.05597V24.096C310.18 24.4586 310.286 24.7573 310.5 24.992C310.734 25.2053 311.044 25.312 311.428 25.312C311.79 25.312 312.078 25.2053 312.292 24.992C312.526 24.7573 312.644 24.4586 312.644 24.096V14.624C312.644 13.2373 313.07 12.1173 313.924 11.264C314.777 10.3893 315.865 9.95197 317.188 9.95197C318.425 9.95197 319.438 10.4 320.228 11.296C321.017 12.1706 321.412 13.3653 321.412 14.88V24.096C321.412 24.4586 321.529 24.7573 321.764 24.992C321.998 25.2053 322.297 25.312 322.66 25.312C323.022 25.312 323.31 25.2053 323.524 24.992C323.758 24.7573 323.876 24.4586 323.876 24.096V14.88V14.816L323.875 14.7847L323.875 14.7644C323.864 13.3166 324.269 12.1604 325.092 11.296C325.945 10.4 327.033 9.95197 328.356 9.95197C329.593 9.95197 330.606 10.4 331.396 11.296C332.185 12.1706 332.58 13.3653 332.58 14.88V24.096C332.58 24.4586 332.697 24.7573 332.932 24.992ZM298.46 25.472C296.732 25.472 295.196 25.0986 293.852 24.352C292.529 23.584 291.484 22.528 290.716 21.184C289.969 19.84 289.596 18.304 289.596 16.576C289.596 14.8266 289.948 13.2906 290.652 11.9679C291.377 10.624 292.369 9.56795 293.628 8.79995C294.886 8.03195 296.337 7.64795 297.98 7.64795C299.601 7.64795 301.009 8.02128 302.204 8.76795C303.42 9.49328 304.358 10.5066 305.02 11.808C305.681 13.1093 306.012 14.592 306.012 16.256C306.012 16.5973 305.905 16.8746 305.692 17.088C305.478 17.28 305.201 17.3759 304.86 17.3759H291.936C292.028 18.3545 292.294 19.2398 292.732 20.0319C293.308 21.0346 294.086 21.8239 295.068 22.4C296.049 22.976 297.18 23.264 298.46 23.264C299.228 23.264 299.996 23.136 300.764 22.88C301.553 22.6026 302.182 22.2613 302.652 21.856C302.886 21.664 303.153 21.568 303.452 21.568C303.75 21.5466 304.006 21.6213 304.22 21.792C304.497 22.048 304.636 22.3253 304.636 22.624C304.657 22.9226 304.54 23.1786 304.284 23.392C303.58 23.9893 302.684 24.4906 301.596 24.896C300.508 25.28 299.462 25.472 298.46 25.472ZM303.702 15.3279H291.981C292.09 14.5254 292.308 13.7894 292.636 13.12C293.148 12.096 293.862 11.2959 294.78 10.7199C295.697 10.144 296.764 9.85595 297.98 9.85595C299.174 9.85595 300.198 10.1333 301.052 10.688C301.926 11.2426 302.598 12.0106 303.068 12.992C303.408 13.7033 303.619 14.482 303.702 15.3279ZM271.323 24.3201C272.667 25.0881 274.181 25.4721 275.867 25.4721C277.531 25.4721 279.024 25.0881 280.347 24.3201C281.691 23.5521 282.747 22.5067 283.515 21.1841C284.304 19.8401 284.72 18.3361 284.763 16.6721V1.56807C284.763 1.18407 284.645 0.885401 284.411 0.672068C284.176 0.437401 283.877 0.320068 283.515 0.320068C283.152 0.320068 282.853 0.437401 282.619 0.672068C282.384 0.885401 282.267 1.18407 282.267 1.56807V10.9761C281.563 9.9734 280.635 9.1734 279.483 8.57607C278.331 7.9574 277.04 7.64807 275.611 7.64807C273.968 7.64807 272.496 8.04273 271.195 8.83207C269.893 9.60007 268.859 10.6561 268.091 12.0001C267.344 13.3441 266.971 14.8587 266.971 16.5441C266.971 18.2507 267.355 19.7761 268.123 21.1201C268.912 22.4641 269.979 23.5307 271.323 24.3201ZM279.163 22.3681C278.203 22.9441 277.104 23.2321 275.867 23.2321C274.651 23.2321 273.552 22.9441 272.571 22.3681C271.589 21.7707 270.811 20.9707 270.235 19.9681C269.659 18.9654 269.371 17.8241 269.371 16.5441C269.371 15.2854 269.659 14.1547 270.235 13.1521C270.811 12.1281 271.589 11.3281 272.571 10.7521C273.552 10.1761 274.651 9.88807 275.867 9.88807C277.104 9.88807 278.203 10.1761 279.163 10.7521C280.144 11.3281 280.912 12.1281 281.467 13.1521C282.043 14.1547 282.331 15.2854 282.331 16.5441C282.331 17.8241 282.043 18.9654 281.467 19.9681C280.912 20.9707 280.144 21.7707 279.163 22.3681ZM251.952 25.8241C250.011 25.8241 248.283 25.4507 246.768 24.7041C245.275 23.9574 244.101 22.9227 243.248 21.6001C242.416 20.2774 242 18.7627 242 17.0561V1.56807C242 1.2054 242.117 0.906734 242.352 0.672068C242.587 0.437401 242.885 0.320068 243.248 0.320068C243.611 0.320068 243.909 0.437401 244.144 0.672068C244.379 0.906734 244.496 1.2054 244.496 1.56807V17.0561C244.496 18.3147 244.805 19.4241 245.424 20.3841C246.064 21.3441 246.949 22.1014 248.08 22.6561C249.211 23.1894 250.501 23.4561 251.952 23.4561C253.381 23.4561 254.651 23.1894 255.76 22.6561C256.869 22.1014 257.733 21.3441 258.352 20.3841C258.992 19.4241 259.312 18.3147 259.312 17.0561V1.56807C259.312 1.2054 259.429 0.906734 259.664 0.672068C259.899 0.437401 260.197 0.320068 260.56 0.320068C260.944 0.320068 261.243 0.437401 261.456 0.672068C261.691 0.906734 261.808 1.2054 261.808 1.56807V17.0561C261.808 18.7627 261.381 20.2774 260.528 21.6001C259.696 22.9227 258.533 23.9574 257.04 24.7041C255.568 25.4507 253.872 25.8241 251.952 25.8241ZM411.644 233C408.679 257.785 387.583 277 362 277C336.417 277 315.321 257.785 312.356 233H186V220H312.486C315.891 195.7 336.761 177 362 177C387.239 177 408.109 195.7 411.514 220H805.486C808.891 195.7 829.761 177 855 177C880.239 177 901.109 195.7 904.514 220H1298.49C1301.89 195.7 1322.76 177 1348 177C1373.24 177 1394.11 195.7 1397.51 220H1523V233H1397.64C1394.68 257.785 1373.58 277 1348 277C1322.42 277 1301.32 257.785 1298.36 233H904.644C901.679 257.785 880.583 277 855 277C829.417 277 808.321 257.785 805.356 233H411.644ZM1388 227C1388 249.091 1370.09 267 1348 267C1325.91 267 1308 249.091 1308 227C1308 204.909 1325.91 187 1348 187C1370.09 187 1388 204.909 1388 227ZM1585 220H1537V233H1585V220ZM1599 220H1647V233H1599V220ZM1709 220H1661V233H1709V220ZM48 220H0V233H48V220ZM62 220H110V233H62V220ZM172 220H124V233H172V220ZM1364.95 62.632C1363.22 62.632 1361.6 62.3013 1360.09 61.64C1358.59 60.9787 1357.27 60.0613 1356.12 58.888C1354.99 57.6933 1354.1 56.328 1353.46 54.792C1352.82 53.2347 1352.5 51.5707 1352.5 49.8C1352.5 48.0507 1352.81 46.408 1353.43 44.872C1354.07 43.3147 1354.96 41.9493 1356.09 40.776C1357.24 39.6027 1358.56 38.6853 1360.05 38.024C1361.57 37.3413 1363.2 37 1364.95 37C1366.49 37 1367.88 37.224 1369.14 37.672C1370.4 38.12 1371.62 38.8347 1372.79 39.816C1372.98 39.9653 1373.09 40.1467 1373.11 40.36C1373.15 40.552 1373.13 40.744 1373.05 40.936C1372.96 41.1067 1372.83 41.2347 1372.66 41.32C1372.62 41.4907 1372.51 41.6187 1372.34 41.704C1372.17 41.7893 1371.97 41.8213 1371.73 41.8C1371.52 41.7787 1371.31 41.6827 1371.09 41.512C1370.26 40.7867 1369.36 40.2533 1368.37 39.912C1367.39 39.5493 1366.25 39.368 1364.95 39.368C1363.56 39.368 1362.26 39.6453 1361.05 40.2C1359.85 40.7547 1358.8 41.512 1357.88 42.472C1356.96 43.432 1356.24 44.5413 1355.7 45.8C1355.19 47.0587 1354.93 48.392 1354.93 49.8C1354.93 51.2507 1355.19 52.6053 1355.7 53.864C1356.24 55.1227 1356.96 56.232 1357.88 57.192C1358.8 58.152 1359.85 58.9093 1361.05 59.464C1362.26 59.9973 1363.56 60.264 1364.95 60.264C1366.12 60.264 1367.23 60.072 1368.28 59.688C1369.32 59.304 1370.32 58.7493 1371.25 58.024C1371.51 57.8107 1371.78 57.7253 1372.05 57.768C1372.35 57.8107 1372.61 57.9387 1372.82 58.152C1373.04 58.3653 1373.14 58.6427 1373.14 58.984C1373.14 59.1547 1373.11 59.3147 1373.05 59.464C1373 59.592 1372.92 59.7307 1372.79 59.88C1371.7 60.8827 1370.49 61.5973 1369.14 62.024C1367.8 62.4293 1366.4 62.632 1364.95 62.632ZM1422.42 51.528V61.096C1422.42 61.48 1422.32 61.7786 1422.1 61.992C1421.89 62.2053 1421.59 62.312 1421.21 62.312C1420.82 62.312 1420.53 62.2053 1420.31 61.992C1420.1 61.7786 1419.99 61.48 1419.99 61.096V46.024C1419.99 45.64 1420.1 45.3413 1420.31 45.128C1420.53 44.9146 1420.82 44.808 1421.21 44.808C1421.59 44.808 1421.89 44.9146 1422.1 45.128C1422.32 45.3413 1422.42 45.64 1422.42 46.024V47.405C1423 46.6269 1423.69 45.9959 1424.5 45.512C1425.53 44.9146 1426.66 44.616 1427.9 44.616C1428.88 44.616 1429.63 44.7546 1430.17 45.032C1430.7 45.3093 1430.9 45.7146 1430.78 46.248C1430.69 46.568 1430.54 46.7813 1430.33 46.888C1430.14 46.9946 1429.89 47.0373 1429.59 47.016C1429.31 46.9946 1428.99 46.9733 1428.63 46.952C1427.44 46.8453 1426.37 46.9733 1425.43 47.336C1424.51 47.6773 1423.78 48.2106 1423.22 48.936C1422.69 49.6613 1422.42 50.5253 1422.42 51.528ZM1455.23 61.352C1456.57 62.0986 1458.11 62.472 1459.83 62.472C1460.84 62.472 1461.88 62.28 1462.97 61.896C1464.06 61.4906 1464.95 60.9893 1465.66 60.392C1465.91 60.1786 1466.03 59.9226 1466.01 59.624C1466.01 59.3253 1465.87 59.048 1465.59 58.792C1465.38 58.6213 1465.13 58.5466 1464.83 58.568C1464.53 58.568 1464.26 58.664 1464.03 58.8559C1463.56 59.2613 1462.93 59.6026 1462.14 59.88C1461.37 60.136 1460.6 60.264 1459.83 60.264C1458.55 60.264 1457.42 59.976 1456.44 59.3999C1455.46 58.824 1454.68 58.0346 1454.11 57.032C1453.67 56.2398 1453.4 55.3545 1453.31 54.3759H1466.23C1466.58 54.3759 1466.85 54.28 1467.07 54.088C1467.28 53.8746 1467.39 53.5973 1467.39 53.256C1467.39 51.5919 1467.06 50.1093 1466.39 48.8079C1465.73 47.5066 1464.79 46.4933 1463.58 45.768C1462.38 45.0213 1460.98 44.6479 1459.35 44.6479C1457.71 44.6479 1456.26 45.0319 1455 45.7999C1453.74 46.568 1452.75 47.624 1452.03 48.9679C1451.32 50.2906 1450.97 51.8266 1450.97 53.576C1450.97 55.304 1451.34 56.84 1452.09 58.184C1452.86 59.528 1453.9 60.584 1455.23 61.352ZM1453.36 52.3279C1453.46 51.5254 1453.68 50.7894 1454.01 50.1199C1454.52 49.096 1455.24 48.296 1456.15 47.7199C1457.07 47.144 1458.14 46.8559 1459.35 46.8559C1460.55 46.8559 1461.57 47.1333 1462.43 47.688C1463.3 48.2426 1463.97 49.0106 1464.44 49.992C1464.78 50.7034 1464.99 51.482 1465.08 52.3279H1453.36ZM1293.7 116.312C1293.34 116.312 1293.04 116.195 1292.81 115.96C1292.57 115.725 1292.45 115.427 1292.45 115.064V92.5681C1292.45 92.2054 1292.57 91.9067 1292.81 91.6721C1293.04 91.4374 1293.34 91.3201 1293.7 91.3201H1300.1C1301.68 91.3201 1303.08 91.6721 1304.29 92.3761C1305.51 93.0587 1306.46 94.0081 1307.14 95.2241C1307.82 96.4401 1308.17 97.8481 1308.17 99.4481C1308.17 101.005 1307.82 102.392 1307.14 103.608C1306.46 104.803 1305.51 105.752 1304.29 106.456C1303.08 107.139 1301.68 107.48 1300.1 107.48H1294.95V115.064C1294.95 115.427 1294.83 115.725 1294.6 115.96C1294.36 116.195 1294.06 116.312 1293.7 116.312ZM1294.95 105.08H1300.1C1301.19 105.08 1302.16 104.845 1303.01 104.376C1303.87 103.885 1304.53 103.213 1305 102.36C1305.49 101.507 1305.73 100.536 1305.73 99.4481C1305.73 98.3174 1305.49 97.3254 1305 96.4721C1304.53 95.6187 1303.87 94.9467 1303.01 94.4561C1302.16 93.9654 1301.19 93.7201 1300.1 93.7201H1294.95V105.08ZM1344.6 107.928V115.096C1344.6 115.459 1344.48 115.757 1344.24 115.992C1344.03 116.205 1343.74 116.312 1343.38 116.312C1343 116.312 1342.69 116.205 1342.45 115.992C1342.24 115.757 1342.13 115.459 1342.13 115.096V107.928V100.056V92.5681C1342.13 92.1841 1342.24 91.8854 1342.45 91.6721C1342.69 91.4374 1343 91.3201 1343.38 91.3201C1343.74 91.3201 1344.03 91.4374 1344.24 91.6721C1344.48 91.8854 1344.6 92.1841 1344.6 92.5681V100.056V101.147C1345.17 100.497 1345.85 99.9629 1346.64 99.5441C1347.78 98.9254 1349.03 98.6161 1350.42 98.6161C1351.94 98.6161 1353.29 98.9361 1354.48 99.5761C1355.68 100.195 1356.62 101.112 1357.3 102.328C1358 103.544 1358.36 105.027 1358.36 106.776V115.096C1358.36 115.437 1358.24 115.725 1358 115.96C1357.77 116.195 1357.48 116.312 1357.14 116.312C1356.78 116.312 1356.48 116.195 1356.24 115.96C1356.01 115.725 1355.89 115.437 1355.89 115.096V106.776C1355.89 105.453 1355.64 104.365 1355.12 103.512C1354.63 102.659 1353.95 102.019 1353.08 101.592C1352.22 101.165 1351.25 100.952 1350.16 100.952C1349.12 100.952 1348.17 101.155 1347.32 101.56C1346.48 101.965 1345.82 102.52 1345.33 103.224C1344.84 103.928 1344.6 104.728 1344.6 105.624V107.928ZM1400.45 116.312C1400.09 116.312 1399.79 116.195 1399.56 115.96C1399.32 115.725 1399.21 115.437 1399.21 115.096V106.776C1399.21 105.453 1398.95 104.365 1398.44 103.512C1397.95 102.659 1397.26 102.019 1396.39 101.592C1395.54 101.165 1394.57 100.952 1393.48 100.952C1392.43 100.952 1391.48 101.155 1390.63 101.56C1389.8 101.965 1389.14 102.52 1388.65 103.224C1388.15 103.928 1387.91 104.728 1387.91 105.624V115.096C1387.91 115.459 1387.79 115.757 1387.56 115.992C1387.34 116.205 1387.06 116.312 1386.69 116.312C1386.31 116.312 1386 116.205 1385.77 115.992C1385.55 115.757 1385.45 115.459 1385.45 115.096V100.056C1385.45 99.672 1385.55 99.3733 1385.77 99.16C1386 98.9253 1386.31 98.808 1386.69 98.808C1387.06 98.808 1387.34 98.9253 1387.56 99.16C1387.79 99.3733 1387.91 99.672 1387.91 100.056V101.147C1388.48 100.497 1389.16 99.9628 1389.96 99.544C1391.09 98.9253 1392.35 98.616 1393.73 98.616C1395.25 98.616 1396.6 98.936 1397.8 99.576C1398.99 100.195 1399.93 101.112 1400.61 102.328C1401.32 103.544 1401.67 105.027 1401.67 106.776V115.096C1401.67 115.437 1401.55 115.725 1401.32 115.96C1401.08 116.195 1400.79 116.312 1400.45 116.312ZM1371.76 116.472C1370.05 116.472 1368.53 116.088 1367.18 115.32C1365.84 114.552 1364.78 113.496 1364.01 112.152C1363.25 110.808 1362.86 109.283 1362.86 107.576C1362.86 105.848 1363.25 104.312 1364.01 102.968C1364.78 101.624 1365.84 100.568 1367.18 99.7999C1368.53 99.032 1370.05 98.6479 1371.76 98.6479C1373.46 98.6479 1374.98 99.032 1376.3 99.7999C1377.65 100.568 1378.7 101.624 1379.47 102.968C1380.24 104.312 1380.63 105.848 1380.65 107.576C1380.65 109.283 1380.26 110.808 1379.47 112.152C1378.7 113.496 1377.65 114.552 1376.3 115.32C1374.98 116.088 1373.46 116.472 1371.76 116.472ZM1371.76 114.232C1372.99 114.232 1374.1 113.944 1375.09 113.368C1376.07 112.792 1376.83 112.003 1377.39 111C1377.94 109.997 1378.22 108.856 1378.22 107.576C1378.22 106.296 1377.94 105.155 1377.39 104.152C1376.83 103.128 1376.07 102.328 1375.09 101.752C1374.1 101.176 1372.99 100.888 1371.76 100.888C1370.52 100.888 1369.41 101.176 1368.43 101.752C1367.45 102.328 1366.67 103.128 1366.09 104.152C1365.54 105.155 1365.26 106.296 1365.26 107.576C1365.26 108.856 1365.54 109.997 1366.09 111C1366.67 112.003 1367.45 112.792 1368.43 113.368C1369.41 113.944 1370.52 114.232 1371.76 114.232ZM1336.11 116.312C1334.98 116.312 1333.96 116.045 1333.07 115.512C1332.19 114.979 1331.5 114.253 1330.99 113.336C1330.47 112.397 1330.22 111.331 1330.22 110.136V101.592H1328.14C1327.82 101.592 1327.55 101.496 1327.34 101.304C1327.12 101.091 1327.02 100.835 1327.02 100.536C1327.02 100.216 1327.12 99.96 1327.34 99.768C1327.55 99.5547 1327.82 99.448 1328.14 99.448H1330.22V94.488C1330.22 94.1253 1330.32 93.8267 1330.54 93.592C1330.77 93.3573 1331.07 93.24 1331.43 93.24C1331.8 93.24 1332.1 93.3573 1332.33 93.592C1332.56 93.8267 1332.68 94.1253 1332.68 94.488V99.448H1336.3C1336.62 99.448 1336.88 99.5547 1337.1 99.768C1337.31 99.96 1337.42 100.216 1337.42 100.536C1337.42 100.835 1337.31 101.091 1337.1 101.304C1336.88 101.496 1336.62 101.592 1336.3 101.592H1332.68V110.136C1332.68 111.224 1333 112.12 1333.64 112.824C1334.28 113.507 1335.1 113.848 1336.11 113.848H1336.97C1337.31 113.848 1337.59 113.965 1337.8 114.2C1338.02 114.435 1338.12 114.733 1338.12 115.096C1338.12 115.459 1337.99 115.757 1337.74 115.992C1337.48 116.205 1337.16 116.312 1336.78 116.312H1336.11ZM1314.16 123.8C1314.37 123.885 1314.56 123.928 1314.73 123.928C1315.14 123.928 1315.45 123.683 1315.66 123.192L1326.03 100.408C1326.35 99.7039 1326.15 99.2026 1325.42 98.9039C1324.72 98.6053 1324.21 98.7973 1323.89 99.4799L1317.93 112.606L1311.69 99.4479C1311.55 99.1279 1311.33 98.9253 1311.05 98.8399C1310.78 98.7333 1310.48 98.7546 1310.16 98.9039C1309.84 99.0533 1309.63 99.2666 1309.52 99.5439C1309.41 99.8213 1309.43 100.12 1309.58 100.44L1316.72 115.224L1316.73 115.25L1313.55 122.264C1313.23 122.968 1313.43 123.48 1314.16 123.8ZM1440.76 62.472C1439.5 62.472 1438.25 62.2586 1437.02 61.832C1435.78 61.4053 1434.78 60.7653 1434.01 59.9119C1433.77 59.656 1433.68 59.368 1433.72 59.048C1433.76 58.728 1433.92 58.4506 1434.2 58.216C1434.5 58.0026 1434.81 57.9173 1435.13 57.9599C1435.45 58.0026 1435.72 58.1413 1435.93 58.3759C1436.44 58.9733 1437.11 59.432 1437.94 59.752C1438.8 60.072 1439.74 60.2319 1440.76 60.2319C1442.34 60.2319 1443.48 59.9653 1444.18 59.4319C1444.89 58.8773 1445.25 58.216 1445.27 57.448C1445.27 56.68 1444.91 56.0506 1444.18 55.56C1443.46 55.048 1442.26 54.6533 1440.6 54.3759C1438.45 54.0346 1436.87 53.4373 1435.86 52.584C1434.86 51.7306 1434.36 50.7173 1434.36 49.5439C1434.36 48.4559 1434.65 47.5493 1435.22 46.824C1435.8 46.0986 1436.57 45.5546 1437.53 45.1919C1438.49 44.8293 1439.54 44.6479 1440.7 44.6479C1442.13 44.6479 1443.35 44.8933 1444.38 45.3839C1445.42 45.8746 1446.26 46.5359 1446.9 47.368C1447.12 47.6453 1447.2 47.9333 1447.16 48.2319C1447.12 48.5306 1446.95 48.7759 1446.65 48.9679C1446.39 49.1173 1446.09 49.1706 1445.75 49.1279C1445.43 49.0639 1445.16 48.9039 1444.92 48.6479C1444.39 48.0293 1443.77 47.5813 1443.06 47.304C1442.36 47.0053 1441.55 46.8559 1440.63 46.8559C1439.46 46.8559 1438.52 47.1013 1437.82 47.5919C1437.11 48.0613 1436.76 48.6586 1436.76 49.3839C1436.76 49.8746 1436.89 50.3013 1437.14 50.6639C1437.42 51.0266 1437.88 51.3466 1438.52 51.624C1439.18 51.9013 1440.1 52.1359 1441.27 52.3279C1442.87 52.584 1444.13 52.9679 1445.05 53.4799C1445.99 53.9706 1446.65 54.5573 1447.03 55.24C1447.44 55.9013 1447.64 56.6266 1447.64 57.416C1447.64 58.4186 1447.34 59.304 1446.74 60.072C1446.17 60.8186 1445.36 61.4053 1444.31 61.832C1443.29 62.2586 1442.1 62.472 1440.76 62.472ZM1405.95 62.5041C1404.44 62.5041 1403.08 62.1948 1401.89 61.5761C1400.69 60.9361 1399.74 60.0081 1399.04 58.7921C1398.36 57.5761 1398.02 56.0934 1398.02 54.3441V46.0241C1398.02 45.6828 1398.13 45.3948 1398.37 45.1601C1398.6 44.9254 1398.89 44.8081 1399.23 44.8081C1399.59 44.8081 1399.89 44.9254 1400.13 45.1601C1400.36 45.3948 1400.48 45.6828 1400.48 46.0241V54.3441C1400.48 55.6668 1400.73 56.7548 1401.22 57.6081C1401.73 58.4614 1402.41 59.1014 1403.26 59.5281C1404.14 59.9548 1405.12 60.1681 1406.21 60.1681C1407.25 60.1681 1408.19 59.9654 1409.02 59.5601C1409.88 59.1548 1410.55 58.6001 1411.04 57.8961C1411.53 57.1921 1411.78 56.3921 1411.78 55.4961V46.0241C1411.78 45.6614 1411.88 45.3734 1412.1 45.1601C1412.33 44.9254 1412.63 44.8081 1412.99 44.8081C1413.35 44.8081 1413.65 44.9254 1413.89 45.1601C1414.12 45.3734 1414.24 45.6614 1414.24 46.0241V61.0641C1414.24 61.4481 1414.12 61.7574 1413.89 61.9921C1413.65 62.2054 1413.35 62.3121 1412.99 62.3121C1412.63 62.3121 1412.33 62.2054 1412.1 61.9921C1411.88 61.7574 1411.78 61.4481 1411.78 61.0641V59.974C1411.21 60.6255 1410.53 61.1703 1409.73 61.6081C1408.6 62.2054 1407.34 62.5041 1405.95 62.5041ZM1380.07 61.32C1381.42 62.088 1382.94 62.472 1384.65 62.472C1386.35 62.472 1387.87 62.088 1389.19 61.32C1390.54 60.5519 1391.59 59.4959 1392.36 58.152C1393.15 56.808 1393.54 55.2826 1393.54 53.576C1393.52 51.8479 1393.13 50.312 1392.36 48.9679C1391.59 47.624 1390.54 46.568 1389.19 45.7999C1387.87 45.0319 1386.35 44.6479 1384.65 44.6479C1382.94 44.6479 1381.42 45.0319 1380.07 45.7999C1378.73 46.568 1377.67 47.624 1376.9 48.9679C1376.14 50.312 1375.75 51.8479 1375.75 53.576C1375.75 55.2826 1376.14 56.808 1376.9 58.152C1377.67 59.4959 1378.73 60.5519 1380.07 61.32ZM1387.98 59.368C1386.99 59.944 1385.89 60.2319 1384.65 60.2319C1383.41 60.2319 1382.3 59.944 1381.32 59.368C1380.34 58.792 1379.56 58.0026 1378.98 57C1378.43 55.9973 1378.15 54.8559 1378.15 53.576C1378.15 52.296 1378.43 51.1546 1378.98 50.152C1379.56 49.1279 1380.34 48.3279 1381.32 47.7519C1382.3 47.1759 1383.41 46.888 1384.65 46.888C1385.89 46.888 1386.99 47.1759 1387.98 47.7519C1388.96 48.3279 1389.73 49.1279 1390.28 50.152C1390.83 51.1546 1391.11 52.296 1391.11 53.576C1391.11 54.8559 1390.83 55.9973 1390.28 57C1389.73 58.0026 1388.96 58.792 1387.98 59.368ZM1328.92 69.7999C1329.14 69.8853 1329.33 69.9279 1329.5 69.9279C1329.91 69.9279 1330.22 69.6826 1330.43 69.1919L1340.8 46.4079C1341.12 45.7039 1340.91 45.2026 1340.19 44.9039C1339.48 44.6053 1338.97 44.7973 1338.65 45.4799L1332.7 58.6061L1326.46 45.4479C1326.31 45.1279 1326.1 44.9253 1325.82 44.8399C1325.54 44.7333 1325.24 44.7546 1324.92 44.9039C1324.6 45.0533 1324.39 45.2666 1324.28 45.5439C1324.18 45.8213 1324.2 46.1199 1324.35 46.4399L1331.48 61.2239L1331.5 61.2497L1328.32 68.2639C1328 68.9679 1328.2 69.4799 1328.92 69.7999ZM1319.83 62.312C1319.46 62.312 1319.17 62.2053 1318.93 61.992C1318.7 61.7573 1318.58 61.4586 1318.58 61.096V51.88C1318.58 50.3653 1318.19 49.1706 1317.4 48.296C1316.61 47.4 1315.59 46.952 1314.36 46.952C1313.03 46.952 1311.95 47.4 1311.09 48.296C1310.27 49.1604 1309.86 50.3166 1309.88 51.7644L1309.88 51.7847L1309.88 51.816V51.88V61.096C1309.88 61.4586 1309.76 61.7573 1309.52 61.992C1309.31 62.2053 1309.02 62.312 1308.66 62.312C1308.3 62.312 1308 62.2053 1307.76 61.992C1307.53 61.7573 1307.41 61.4586 1307.41 61.096V51.88C1307.41 50.3653 1307.02 49.1706 1306.23 48.296C1305.44 47.4 1304.43 46.952 1303.19 46.952C1301.86 46.952 1300.78 47.3893 1299.92 48.264C1299.07 49.1173 1298.64 50.2373 1298.64 51.624V61.096C1298.64 61.4586 1298.53 61.7573 1298.29 61.992C1298.08 62.2053 1297.79 62.312 1297.43 62.312C1297.04 62.312 1296.73 62.2053 1296.5 61.992C1296.29 61.7573 1296.18 61.4586 1296.18 61.096V46.056C1296.18 45.6933 1296.29 45.3946 1296.5 45.16C1296.73 44.9253 1297.04 44.808 1297.43 44.808C1297.79 44.808 1298.08 44.9253 1298.29 45.16C1298.53 45.3946 1298.64 45.6933 1298.64 46.056V46.7523C1299.07 46.2636 1299.56 45.8502 1300.12 45.512C1301.1 44.9146 1302.21 44.616 1303.44 44.616C1304.7 44.616 1305.81 44.9146 1306.77 45.512C1307.63 46.0342 1308.32 46.7438 1308.83 47.641C1309.4 46.7438 1310.15 46.0342 1311.06 45.512C1312.1 44.9146 1313.29 44.616 1314.61 44.616C1315.87 44.616 1316.98 44.9146 1317.94 45.512C1318.92 46.1093 1319.68 46.952 1320.21 48.04C1320.77 49.128 1321.04 50.408 1321.04 51.88V61.096C1321.04 61.4586 1320.93 61.7573 1320.69 61.992C1320.48 62.2053 1320.19 62.312 1319.83 62.312ZM1279.85 61.352C1281.2 62.0986 1282.73 62.472 1284.46 62.472C1285.46 62.472 1286.51 62.28 1287.6 61.896C1288.68 61.4906 1289.58 60.9893 1290.28 60.392C1290.54 60.1786 1290.66 59.9226 1290.64 59.624C1290.64 59.3253 1290.5 59.048 1290.22 58.792C1290.01 58.6213 1289.75 58.5466 1289.45 58.568C1289.15 58.568 1288.89 58.664 1288.65 58.8559C1288.18 59.2613 1287.55 59.6026 1286.76 59.88C1286 60.136 1285.23 60.264 1284.46 60.264C1283.18 60.264 1282.05 59.976 1281.07 59.3999C1280.09 58.824 1279.31 58.0346 1278.73 57.032C1278.29 56.2398 1278.03 55.3545 1277.94 54.3759H1290.86C1291.2 54.3759 1291.48 54.28 1291.69 54.088C1291.91 53.8746 1292.01 53.5973 1292.01 53.256C1292.01 51.5919 1291.68 50.1093 1291.02 48.8079C1290.36 47.5066 1289.42 46.4933 1288.2 45.768C1287.01 45.0213 1285.6 44.6479 1283.98 44.6479C1282.34 44.6479 1280.89 45.0319 1279.63 45.7999C1278.37 46.568 1277.38 47.624 1276.65 48.9679C1275.95 50.2906 1275.6 51.8266 1275.6 53.576C1275.6 55.304 1275.97 56.84 1276.72 58.184C1277.48 59.528 1278.53 60.584 1279.85 61.352ZM1277.98 52.3279H1289.7C1289.62 51.482 1289.41 50.7034 1289.07 49.992C1288.6 49.0106 1287.93 48.2426 1287.05 47.688C1286.2 47.1333 1285.17 46.8559 1283.98 46.8559C1282.76 46.8559 1281.7 47.144 1280.78 47.7199C1279.86 48.296 1279.15 49.096 1278.64 50.1199C1278.31 50.7894 1278.09 51.5254 1277.98 52.3279ZM1261.87 62.4721C1260.18 62.4721 1258.67 62.0881 1257.32 61.3201C1255.98 60.5307 1254.91 59.4641 1254.12 58.1201C1253.35 56.7761 1252.97 55.2507 1252.97 53.5441C1252.97 51.8587 1253.34 50.3441 1254.09 49.0001C1254.86 47.6561 1255.89 46.6001 1257.19 45.8321C1258.5 45.0427 1259.97 44.6481 1261.61 44.6481C1263.04 44.6481 1264.33 44.9574 1265.48 45.5761C1266.63 46.1734 1267.56 46.9734 1268.27 47.9761V38.5681C1268.27 38.1841 1268.38 37.8854 1268.62 37.6721C1268.85 37.4374 1269.15 37.3201 1269.51 37.3201C1269.88 37.3201 1270.18 37.4374 1270.41 37.6721C1270.65 37.8854 1270.76 38.1841 1270.76 38.5681V53.6721C1270.72 55.3361 1270.3 56.8401 1269.51 58.1841C1268.75 59.5067 1267.69 60.5521 1266.35 61.3201C1265.02 62.0881 1263.53 62.4721 1261.87 62.4721ZM1261.87 60.2321C1263.1 60.2321 1264.2 59.9441 1265.16 59.3681C1266.14 58.7707 1266.91 57.9707 1267.47 56.9681C1268.04 55.9654 1268.33 54.8241 1268.33 53.5441C1268.33 52.2854 1268.04 51.1547 1267.47 50.1521C1266.91 49.1281 1266.14 48.3281 1265.16 47.7521C1264.2 47.1761 1263.1 46.8881 1261.87 46.8881C1260.65 46.8881 1259.55 47.1761 1258.57 47.7521C1257.59 48.3281 1256.81 49.1281 1256.23 50.1521C1255.66 51.1547 1255.37 52.2854 1255.37 53.5441C1255.37 54.8241 1255.66 55.9654 1256.23 56.9681C1256.81 57.9707 1257.59 58.7707 1258.57 59.3681C1259.55 59.9441 1260.65 60.2321 1261.87 60.2321ZM1232.77 61.7041C1234.28 62.4507 1236.01 62.8241 1237.95 62.8241C1239.87 62.8241 1241.57 62.4507 1243.04 61.7041C1244.53 60.9574 1245.7 59.9227 1246.53 58.6001C1247.38 57.2774 1247.81 55.7627 1247.81 54.0561V38.5681C1247.81 38.2054 1247.69 37.9067 1247.46 37.6721C1247.24 37.4374 1246.94 37.3201 1246.56 37.3201C1246.2 37.3201 1245.9 37.4374 1245.66 37.6721C1245.43 37.9067 1245.31 38.2054 1245.31 38.5681V54.0561C1245.31 55.3147 1244.99 56.4241 1244.35 57.3841C1243.73 58.3441 1242.87 59.1014 1241.76 59.6561C1240.65 60.1894 1239.38 60.4561 1237.95 60.4561C1236.5 60.4561 1235.21 60.1894 1234.08 59.6561C1232.95 59.1014 1232.06 58.3441 1231.42 57.3841C1230.81 56.4241 1230.5 55.3147 1230.5 54.0561V38.5681C1230.5 38.2054 1230.38 37.9067 1230.14 37.6721C1229.91 37.4374 1229.61 37.3201 1229.25 37.3201C1228.89 37.3201 1228.59 37.4374 1228.35 37.6721C1228.12 37.9067 1228 38.2054 1228 38.5681V54.0561C1228 55.7627 1228.42 57.2774 1229.25 58.6001C1230.1 59.9227 1231.27 60.9574 1232.77 61.7041ZM868.349 61.328C869.864 61.9893 871.485 62.32 873.213 62.32C874.664 62.32 876.061 62.1173 877.405 61.712C878.749 61.2853 879.965 60.5707 881.053 59.568C881.181 59.4187 881.266 59.28 881.309 59.152C881.373 59.0027 881.405 58.8427 881.405 58.672C881.405 58.3307 881.298 58.0533 881.085 57.84C880.872 57.6267 880.616 57.4987 880.317 57.456C880.04 57.4133 879.773 57.4987 879.517 57.712C878.578 58.4373 877.586 58.992 876.541 59.376C875.496 59.76 874.386 59.952 873.213 59.952C871.826 59.952 870.525 59.6853 869.309 59.152C868.115 58.5973 867.058 57.84 866.141 56.88C865.224 55.92 864.498 54.8107 863.965 53.552C863.453 52.2933 863.197 50.9387 863.197 49.488C863.197 48.08 863.453 46.7467 863.965 45.488C864.498 44.2293 865.224 43.12 866.141 42.16C867.058 41.2 868.115 40.4427 869.309 39.888C870.525 39.3333 871.826 39.056 873.213 39.056C874.514 39.056 875.656 39.2373 876.637 39.6C877.618 39.9413 878.525 40.4747 879.357 41.2C879.57 41.3707 879.784 41.4667 879.997 41.488C880.232 41.5093 880.434 41.4773 880.605 41.392C880.776 41.3067 880.882 41.1787 880.925 41.008C881.096 40.9227 881.224 40.7947 881.309 40.624C881.394 40.432 881.416 40.24 881.373 40.048C881.352 39.8347 881.245 39.6533 881.053 39.504C879.88 38.5227 878.664 37.808 877.405 37.36C876.146 36.912 874.749 36.688 873.213 36.688C871.464 36.688 869.832 37.0293 868.317 37.712C866.824 38.3733 865.501 39.2907 864.349 40.464C863.219 41.6373 862.333 43.0027 861.693 44.56C861.074 46.096 860.765 47.7387 860.765 49.488C860.765 51.2587 861.085 52.9227 861.725 54.48C862.365 56.016 863.25 57.3813 864.381 58.576C865.533 59.7493 866.856 60.6667 868.349 61.328ZM930.687 60.784V51.216C930.687 50.2133 930.954 49.3493 931.487 48.624C932.042 47.8986 932.778 47.3653 933.695 47.024C934.634 46.6613 935.7 46.5333 936.895 46.64C937.258 46.6613 937.578 46.6826 937.855 46.704C938.154 46.7253 938.399 46.6826 938.591 46.576C938.804 46.4693 938.954 46.256 939.039 45.936C939.167 45.4026 938.964 44.9973 938.431 44.72C937.898 44.4426 937.14 44.304 936.159 44.304C934.922 44.304 933.791 44.6026 932.767 45.2C931.955 45.6839 931.261 46.3149 930.687 47.093V45.712C930.687 45.328 930.58 45.0293 930.367 44.816C930.154 44.6026 929.855 44.496 929.471 44.496C929.087 44.496 928.788 44.6026 928.575 44.816C928.362 45.0293 928.255 45.328 928.255 45.712V60.784C928.255 61.168 928.362 61.4666 928.575 61.68C928.788 61.8933 929.087 62 929.471 62C929.855 62 930.154 61.8933 930.367 61.68C930.58 61.4666 930.687 61.168 930.687 60.784ZM968.097 62.1599C966.369 62.1599 964.833 61.7866 963.489 61.0399C962.167 60.2719 961.121 59.2159 960.353 57.8719C959.607 56.5279 959.233 54.9919 959.233 53.2639C959.233 51.5146 959.585 49.9786 960.289 48.6559C961.015 47.3119 962.007 46.2559 963.265 45.4879C964.524 44.7199 965.975 44.3359 967.617 44.3359C969.239 44.3359 970.647 44.7093 971.841 45.4559C973.057 46.1813 973.996 47.1946 974.657 48.4959C975.319 49.7973 975.649 51.2799 975.649 52.9439C975.649 53.2853 975.543 53.5626 975.329 53.7759C975.116 53.9679 974.839 54.0639 974.497 54.0639H961.574C961.666 55.0425 961.931 55.9278 962.369 56.7199C962.945 57.7226 963.724 58.5119 964.705 59.0879C965.687 59.6639 966.817 59.9519 968.097 59.9519C968.865 59.9519 969.633 59.8239 970.401 59.5679C971.191 59.2906 971.82 58.9493 972.289 58.5439C972.524 58.3519 972.791 58.2559 973.089 58.2559C973.388 58.2346 973.644 58.3093 973.857 58.4799C974.135 58.7359 974.273 59.0133 974.273 59.3119C974.295 59.6106 974.177 59.8666 973.921 60.0799C973.217 60.6773 972.321 61.1786 971.233 61.5839C970.145 61.9679 969.1 62.1599 968.097 62.1599ZM962.273 49.8079C961.946 50.4774 961.728 51.2134 961.619 52.0159H973.339C973.257 51.17 973.046 50.3913 972.705 49.6799C972.236 48.6986 971.564 47.9306 970.689 47.3759C969.836 46.8213 968.812 46.5439 967.617 46.5439C966.401 46.5439 965.335 46.8319 964.417 47.4079C963.5 47.9839 962.785 48.7839 962.273 49.8079ZM729.432 116C729.091 116 728.792 115.883 728.536 115.648C728.302 115.392 728.184 115.093 728.184 114.752V92.256C728.184 91.8933 728.302 91.5947 728.536 91.36C728.792 91.1253 729.091 91.008 729.432 91.008C729.944 91.008 730.318 91.2213 730.552 91.648L740.787 111.997L750.84 91.648C751.096 91.2213 751.47 91.008 751.96 91.008C752.302 91.008 752.59 91.1253 752.824 91.36C753.059 91.5947 753.176 91.8933 753.176 92.256V114.752C753.176 115.093 753.059 115.392 752.824 115.648C752.59 115.883 752.302 116 751.96 116C751.598 116 751.288 115.883 751.032 115.648C750.798 115.392 750.68 115.093 750.68 114.752V96.632L741.784 114.816C741.55 115.221 741.187 115.424 740.696 115.424C740.163 115.424 739.779 115.168 739.544 114.656L730.68 96.928V114.752C730.68 115.093 730.552 115.392 730.296 115.648C730.062 115.883 729.774 116 729.432 116ZM767.239 116.16C765.532 116.16 764.007 115.776 762.663 115.008C761.319 114.24 760.263 113.184 759.495 111.84C758.727 110.496 758.343 108.971 758.343 107.264C758.343 105.536 758.727 104 759.495 102.656C760.263 101.312 761.319 100.256 762.663 99.488C764.007 98.72 765.532 98.336 767.239 98.336C768.945 98.336 770.46 98.72 771.783 99.488C773.127 100.256 774.183 101.312 774.951 102.656C775.719 104 776.113 105.536 776.135 107.264C776.135 108.971 775.74 110.496 774.951 111.84C774.183 113.184 773.127 114.24 771.783 115.008C770.46 115.776 768.945 116.16 767.239 116.16ZM767.239 113.92C768.476 113.92 769.585 113.632 770.567 113.056C771.548 112.48 772.316 111.691 772.871 110.688C773.425 109.685 773.703 108.544 773.703 107.264C773.703 105.984 773.425 104.843 772.871 103.84C772.316 102.816 771.548 102.016 770.567 101.44C769.585 100.864 768.476 100.576 767.239 100.576C766.001 100.576 764.892 100.864 763.911 101.44C762.929 102.016 762.151 102.816 761.575 103.84C761.02 104.843 760.743 105.984 760.743 107.264C760.743 108.544 761.02 109.685 761.575 110.688C762.151 111.691 762.929 112.48 763.911 113.056C764.892 113.632 766.001 113.92 767.239 113.92ZM787.775 116C786.644 116 785.631 115.733 784.735 115.2C783.86 114.667 783.167 113.941 782.655 113.024C782.143 112.085 781.887 111.019 781.887 109.824V101.28H779.807C779.487 101.28 779.22 101.184 779.007 100.992C778.794 100.779 778.687 100.523 778.687 100.224C778.687 99.904 778.794 99.648 779.007 99.456C779.22 99.2427 779.487 99.136 779.807 99.136H781.887V94.176C781.887 93.8133 781.994 93.5147 782.207 93.28C782.442 93.0453 782.74 92.928 783.103 92.928C783.466 92.928 783.764 93.0453 783.999 93.28C784.234 93.5147 784.351 93.8133 784.351 94.176V99.136H787.967C788.287 99.136 788.554 99.2427 788.767 99.456C788.98 99.648 789.087 99.904 789.087 100.224C789.087 100.523 788.98 100.779 788.767 100.992C788.554 101.184 788.287 101.28 787.967 101.28H784.351V109.824C784.351 110.912 784.671 111.808 785.311 112.512C785.951 113.195 786.772 113.536 787.775 113.536H788.639C788.98 113.536 789.258 113.653 789.471 113.888C789.684 114.123 789.791 114.421 789.791 114.784C789.791 115.147 789.663 115.445 789.407 115.68C789.151 115.893 788.831 116 788.447 116H787.775ZM795.562 116C795.178 116 794.869 115.893 794.634 115.68C794.421 115.445 794.314 115.136 794.314 114.752V99.744C794.314 99.36 794.421 99.0613 794.634 98.848C794.869 98.6133 795.178 98.496 795.562 98.496C795.925 98.496 796.213 98.6133 796.426 98.848C796.661 99.0613 796.778 99.36 796.778 99.744V114.752C796.778 115.136 796.661 115.445 796.426 115.68C796.213 115.893 795.925 116 795.562 116ZM795.53 95.168C795.061 95.168 794.655 94.9973 794.314 94.656C793.973 94.3147 793.802 93.8987 793.802 93.408C793.802 92.8747 793.973 92.4587 794.314 92.16C794.677 91.84 795.093 91.68 795.562 91.68C796.01 91.68 796.405 91.84 796.746 92.16C797.109 92.4587 797.29 92.8747 797.29 93.408C797.29 93.8987 797.119 94.3147 796.778 94.656C796.437 94.9973 796.021 95.168 795.53 95.168ZM811.02 116.16C809.313 116.16 807.788 115.776 806.444 115.008C805.1 114.24 804.044 113.184 803.276 111.84C802.508 110.496 802.124 108.971 802.124 107.264C802.124 105.536 802.508 104 803.276 102.656C804.044 101.312 805.1 100.256 806.444 99.488C807.788 98.72 809.313 98.336 811.02 98.336C812.727 98.336 814.241 98.72 815.564 99.488C816.908 100.256 817.964 101.312 818.732 102.656C819.5 104 819.895 105.536 819.916 107.264C819.916 108.971 819.521 110.496 818.732 111.84C817.964 113.184 816.908 114.24 815.564 115.008C814.241 115.776 812.727 116.16 811.02 116.16ZM811.02 113.92C812.257 113.92 813.367 113.632 814.348 113.056C815.329 112.48 816.097 111.691 816.652 110.688C817.207 109.685 817.484 108.544 817.484 107.264C817.484 105.984 817.207 104.843 816.652 103.84C816.097 102.816 815.329 102.016 814.348 101.44C813.367 100.864 812.257 100.576 811.02 100.576C809.783 100.576 808.673 100.864 807.692 101.44C806.711 102.016 805.932 102.816 805.356 103.84C804.801 104.843 804.524 105.984 804.524 107.264C804.524 108.544 804.801 109.685 805.356 110.688C805.932 111.691 806.711 112.48 807.692 113.056C808.673 113.632 809.783 113.92 811.02 113.92ZM839.716 116C839.353 116 839.055 115.883 838.82 115.648C838.585 115.413 838.468 115.125 838.468 114.784V106.464C838.468 105.141 838.212 104.053 837.7 103.2C837.209 102.347 836.527 101.707 835.652 101.28C834.799 100.853 833.828 100.64 832.74 100.64C831.695 100.64 830.745 100.843 829.892 101.248C829.06 101.653 828.399 102.208 827.908 102.912C827.417 103.616 827.172 104.416 827.172 105.312V114.784C827.172 115.147 827.055 115.445 826.82 115.68C826.607 115.893 826.319 116 825.956 116C825.572 116 825.263 115.893 825.028 115.68C824.815 115.445 824.708 115.147 824.708 114.784V99.744C824.708 99.36 824.815 99.0613 825.028 98.848C825.263 98.6133 825.572 98.496 825.956 98.496C826.319 98.496 826.607 98.6133 826.82 98.848C827.055 99.0613 827.172 99.36 827.172 99.744V100.835C827.745 100.185 828.427 99.6508 829.22 99.232C830.351 98.6133 831.609 98.304 832.996 98.304C834.511 98.304 835.865 98.624 837.06 99.264C838.255 99.8827 839.193 100.8 839.876 102.016C840.58 103.232 840.932 104.715 840.932 106.464V114.784C840.932 115.125 840.815 115.413 840.58 115.648C840.345 115.883 840.057 116 839.716 116ZM867.291 116.32C865.563 116.32 863.942 115.989 862.427 115.328C860.934 114.667 859.611 113.749 858.459 112.576C857.329 111.381 856.443 110.016 855.803 108.48C855.163 106.923 854.843 105.259 854.843 103.488C854.843 101.739 855.153 100.096 855.771 98.56C856.411 97.0027 857.297 95.6373 858.427 94.464C859.579 93.2907 860.902 92.3733 862.395 91.712C863.91 91.0293 865.542 90.688 867.291 90.688C868.827 90.688 870.225 90.912 871.483 91.36C872.742 91.808 873.958 92.5227 875.131 93.504C875.323 93.6533 875.43 93.8347 875.451 94.048C875.494 94.24 875.473 94.432 875.387 94.624C875.302 94.7947 875.174 94.9227 875.003 95.008C874.961 95.1787 874.854 95.3067 874.683 95.392C874.513 95.4773 874.31 95.5093 874.075 95.488C873.862 95.4667 873.649 95.3707 873.435 95.2C872.603 94.4747 871.697 93.9413 870.715 93.6C869.734 93.2373 868.593 93.056 867.291 93.056C865.905 93.056 864.603 93.3333 863.387 93.888C862.193 94.4427 861.137 95.2 860.219 96.16C859.302 97.12 858.577 98.2293 858.043 99.488C857.531 100.747 857.275 102.08 857.275 103.488C857.275 104.939 857.531 106.293 858.043 107.552C858.577 108.811 859.302 109.92 860.219 110.88C861.137 111.84 862.193 112.597 863.387 113.152C864.603 113.685 865.905 113.952 867.291 113.952C868.465 113.952 869.574 113.76 870.619 113.376C871.465 113.065 872.276 112.643 873.051 112.109V105.728H868.059C867.697 105.728 867.398 105.621 867.163 105.408C866.929 105.195 866.811 104.928 866.811 104.608C866.811 104.288 866.929 104.032 867.163 103.84C867.398 103.627 867.697 103.52 868.059 103.52H874.235C874.598 103.52 874.897 103.637 875.131 103.872C875.366 104.085 875.483 104.373 875.483 104.736V112.672C875.483 112.843 875.462 113.003 875.419 113.152C875.377 113.28 875.281 113.419 875.131 113.568C874.043 114.571 872.827 115.285 871.483 115.712C870.139 116.117 868.742 116.32 867.291 116.32ZM882.734 114.784V105.216C882.734 104.213 883.001 103.349 883.534 102.624C884.089 101.899 884.825 101.365 885.742 101.024C886.681 100.661 887.747 100.533 888.942 100.64C889.305 100.661 889.625 100.683 889.902 100.704C890.201 100.725 890.446 100.683 890.638 100.576C890.851 100.469 891.001 100.256 891.086 99.936C891.214 99.4027 891.011 98.9973 890.478 98.72C889.945 98.4427 889.187 98.304 888.206 98.304C886.969 98.304 885.838 98.6027 884.814 99.2C884.002 99.684 883.308 100.315 882.734 101.093V99.712C882.734 99.328 882.627 99.0293 882.414 98.816C882.201 98.6027 881.902 98.496 881.518 98.496C881.134 98.496 880.835 98.6027 880.622 98.816C880.409 99.0293 880.302 99.328 880.302 99.712V114.784C880.302 115.168 880.409 115.467 880.622 115.68C880.835 115.893 881.134 116 881.518 116C881.902 116 882.201 115.893 882.414 115.68C882.627 115.467 882.734 115.168 882.734 114.784ZM901.389 116.16C899.746 116.16 898.274 115.776 896.973 115.008C895.672 114.219 894.637 113.152 893.869 111.808C893.122 110.464 892.749 108.949 892.749 107.264C892.749 105.557 893.133 104.032 893.901 102.688C894.69 101.344 895.757 100.288 897.101 99.52C898.445 98.7307 899.96 98.336 901.645 98.336C903.33 98.336 904.834 98.7307 906.157 99.52C907.501 100.288 908.557 101.344 909.325 102.688C910.114 104.032 910.52 105.557 910.541 107.264V114.784C910.541 115.147 910.424 115.445 910.189 115.68C909.954 115.893 909.656 116 909.293 116C908.93 116 908.632 115.893 908.397 115.68C908.162 115.445 908.045 115.147 908.045 114.784V112.839C907.39 113.757 906.558 114.512 905.549 115.104C904.333 115.808 902.946 116.16 901.389 116.16ZM901.645 113.92C902.882 113.92 903.981 113.632 904.941 113.056C905.922 112.48 906.69 111.691 907.245 110.688C907.821 109.664 908.109 108.523 908.109 107.264C908.109 105.984 907.821 104.843 907.245 103.84C906.69 102.837 905.922 102.048 904.941 101.472C903.981 100.875 902.882 100.576 901.645 100.576C900.429 100.576 899.33 100.875 898.349 101.472C897.368 102.048 896.589 102.837 896.013 103.84C895.437 104.843 895.149 105.984 895.149 107.264C895.149 108.523 895.437 109.664 896.013 110.688C896.589 111.691 897.368 112.48 898.349 113.056C899.33 113.632 900.429 113.92 901.645 113.92ZM916.581 123.488C916.197 123.488 915.888 123.371 915.653 123.136C915.44 122.923 915.333 122.624 915.333 122.24V107.136C915.354 105.472 915.749 103.979 916.517 102.656C917.306 101.312 918.362 100.256 919.685 99.488C921.029 98.72 922.533 98.336 924.197 98.336C925.904 98.336 927.429 98.7307 928.773 99.52C930.117 100.288 931.173 101.344 931.941 102.688C932.73 104.032 933.125 105.557 933.125 107.264C933.125 108.949 932.741 110.464 931.973 111.808C931.226 113.152 930.202 114.219 928.901 115.008C927.6 115.776 926.128 116.16 924.485 116.16C923.056 116.16 921.754 115.861 920.581 115.264C919.429 114.645 918.501 113.835 917.797 112.832V122.24C917.797 122.624 917.68 122.923 917.445 123.136C917.232 123.371 916.944 123.488 916.581 123.488ZM924.197 113.92C925.434 113.92 926.544 113.632 927.525 113.056C928.506 112.48 929.274 111.691 929.829 110.688C930.405 109.664 930.693 108.523 930.693 107.264C930.693 105.984 930.405 104.843 929.829 103.84C929.274 102.837 928.506 102.048 927.525 101.472C926.544 100.875 925.434 100.576 924.197 100.576C922.981 100.576 921.882 100.875 920.901 101.472C919.92 102.048 919.152 102.837 918.597 103.84C918.042 104.843 917.765 105.984 917.765 107.264C917.765 108.523 918.042 109.664 918.597 110.688C919.152 111.691 919.92 112.48 920.901 113.056C921.882 113.632 922.981 113.92 924.197 113.92ZM940.422 114.784V107.616V105.312C940.422 104.416 940.667 103.616 941.158 102.912C941.649 102.208 942.31 101.653 943.142 101.248C943.995 100.843 944.945 100.64 945.99 100.64C947.078 100.64 948.049 100.853 948.902 101.28C949.777 101.707 950.459 102.347 950.95 103.2C951.462 104.053 951.718 105.141 951.718 106.464V114.784C951.718 115.125 951.835 115.413 952.07 115.648C952.305 115.883 952.603 116 952.966 116C953.307 116 953.595 115.883 953.83 115.648C954.065 115.413 954.182 115.125 954.182 114.784V106.464C954.182 104.715 953.83 103.232 953.126 102.016C952.443 100.8 951.505 99.8827 950.31 99.264C949.115 98.624 947.761 98.304 946.246 98.304C944.859 98.304 943.601 98.6133 942.47 99.232C941.677 99.6508 940.995 100.185 940.422 100.835V99.744V92.256C940.422 91.872 940.305 91.5733 940.07 91.36C939.857 91.1253 939.569 91.008 939.206 91.008C938.822 91.008 938.513 91.1253 938.278 91.36C938.065 91.5733 937.958 91.872 937.958 92.256V99.744V107.616V114.784C937.958 115.147 938.065 115.445 938.278 115.68C938.513 115.893 938.822 116 939.206 116C939.569 116 939.857 115.893 940.07 115.68C940.305 115.445 940.422 115.147 940.422 114.784ZM961.374 116C960.99 116 960.681 115.893 960.446 115.68C960.233 115.445 960.126 115.136 960.126 114.752V99.744C960.126 99.36 960.233 99.0613 960.446 98.848C960.681 98.6133 960.99 98.496 961.374 98.496C961.737 98.496 962.025 98.6133 962.238 98.848C962.473 99.0613 962.59 99.36 962.59 99.744V114.752C962.59 115.136 962.473 115.445 962.238 115.68C962.025 115.893 961.737 116 961.374 116ZM961.342 95.168C960.873 95.168 960.468 94.9973 960.126 94.656C959.785 94.3147 959.614 93.8987 959.614 93.408C959.614 92.8747 959.785 92.4587 960.126 92.16C960.489 91.84 960.905 91.68 961.374 91.68C961.822 91.68 962.217 91.84 962.558 92.16C962.921 92.4587 963.102 92.8747 963.102 93.408C963.102 93.8987 962.932 94.3147 962.59 94.656C962.249 94.9973 961.833 95.168 961.342 95.168ZM976.672 116.16C974.987 116.16 973.483 115.776 972.16 115.008C970.859 114.219 969.824 113.152 969.056 111.808C968.31 110.464 967.936 108.949 967.936 107.264C967.936 105.557 968.299 104.032 969.024 102.688C969.75 101.344 970.742 100.288 972 99.52C973.259 98.7307 974.71 98.336 976.352 98.336C977.654 98.336 978.848 98.592 979.936 99.104C981.046 99.616 982.016 100.384 982.848 101.408C983.083 101.664 983.168 101.941 983.104 102.24C983.04 102.517 982.859 102.763 982.56 102.976C982.326 103.147 982.059 103.211 981.76 103.168C981.483 103.104 981.238 102.944 981.024 102.688C979.787 101.28 978.23 100.576 976.352 100.576C975.158 100.576 974.102 100.864 973.184 101.44C972.288 102.016 971.584 102.805 971.072 103.808C970.582 104.811 970.336 105.963 970.336 107.264C970.336 108.544 970.603 109.685 971.136 110.688C971.67 111.691 972.416 112.48 973.376 113.056C974.336 113.632 975.435 113.92 976.672 113.92C977.504 113.92 978.262 113.813 978.944 113.6C979.648 113.365 980.267 113.013 980.8 112.544C981.056 112.331 981.323 112.213 981.6 112.192C981.878 112.171 982.134 112.256 982.368 112.448C982.624 112.683 982.763 112.949 982.784 113.248C982.827 113.547 982.731 113.803 982.496 114.016C980.939 115.445 978.998 116.16 976.672 116.16ZM945.279 61.5199C946.517 61.9466 947.765 62.1599 949.023 62.1599C950.367 62.1599 951.552 61.9466 952.576 61.5199C953.621 61.0933 954.432 60.5066 955.008 59.7599C955.605 58.9919 955.904 58.1066 955.904 57.1039C955.904 56.3146 955.701 55.5893 955.295 54.9279C954.911 54.2453 954.25 53.6586 953.311 53.1679C952.394 52.6559 951.135 52.2719 949.535 52.0159C948.362 51.8239 947.445 51.5893 946.784 51.3119C946.143 51.0346 945.685 50.7146 945.407 50.3519C945.151 49.9893 945.023 49.5626 945.023 49.0719C945.023 48.3466 945.375 47.7493 946.079 47.2799C946.784 46.7893 947.722 46.5439 948.896 46.5439C949.813 46.5439 950.623 46.6933 951.327 46.9919C952.031 47.2693 952.65 47.7173 953.183 48.3359C953.418 48.5919 953.695 48.7519 954.016 48.8159C954.357 48.8586 954.656 48.8053 954.911 48.6559C955.21 48.4639 955.381 48.2186 955.423 47.9199C955.466 47.6213 955.381 47.3333 955.167 47.0559C954.527 46.2239 953.685 45.5626 952.639 45.0719C951.615 44.5813 950.389 44.3359 948.959 44.3359C947.807 44.3359 946.751 44.5173 945.792 44.8799C944.831 45.2426 944.063 45.7866 943.487 46.5119C942.911 47.2373 942.623 48.1439 942.623 49.2319C942.623 50.4053 943.125 51.4186 944.128 52.2719C945.13 53.1253 946.709 53.7226 948.863 54.0639C950.527 54.3413 951.722 54.7359 952.448 55.2479C953.173 55.7386 953.535 56.3679 953.535 57.1359C953.514 57.9039 953.151 58.5653 952.448 59.1199C951.744 59.6533 950.602 59.9199 949.023 59.9199C948 59.9199 947.061 59.7599 946.207 59.4399C945.375 59.1199 944.703 58.6613 944.191 58.0639C943.978 57.8293 943.711 57.6906 943.391 57.6479C943.071 57.6053 942.762 57.6906 942.464 57.9039C942.186 58.1386 942.026 58.4159 941.983 58.7359C941.941 59.0559 942.037 59.3439 942.271 59.5999C943.039 60.4533 944.042 61.0933 945.279 61.5199ZM910.151 61.2641C911.345 61.8828 912.7 62.1921 914.215 62.1921C915.602 62.1921 916.86 61.8934 917.991 61.2961C918.791 60.8582 919.474 60.3135 920.039 59.662V60.7521C920.039 61.1361 920.146 61.4454 920.359 61.6801C920.594 61.8934 920.892 62.0001 921.255 62.0001C921.617 62.0001 921.916 61.8934 922.151 61.6801C922.385 61.4454 922.503 61.1361 922.503 60.7521V45.7121C922.503 45.3494 922.385 45.0614 922.151 44.8481C921.916 44.6134 921.617 44.4961 921.255 44.4961C920.892 44.4961 920.594 44.6134 920.359 44.8481C920.146 45.0614 920.039 45.3494 920.039 45.7121V55.1841C920.039 56.0801 919.793 56.8801 919.303 57.5841C918.812 58.2881 918.14 58.8428 917.287 59.2481C916.455 59.6534 915.516 59.8561 914.471 59.8561C913.383 59.8561 912.401 59.6428 911.527 59.2161C910.673 58.7894 909.991 58.1494 909.479 57.2961C908.988 56.4428 908.743 55.3548 908.743 54.0321V45.7121C908.743 45.3708 908.625 45.0828 908.391 44.8481C908.156 44.6134 907.857 44.4961 907.495 44.4961C907.153 44.4961 906.865 44.6134 906.631 44.8481C906.396 45.0828 906.279 45.3708 906.279 45.7121V54.0321C906.279 55.7814 906.62 57.2641 907.303 58.4801C908.007 59.6961 908.956 60.6241 910.151 61.2641ZM892.911 62.1599C891.204 62.1599 889.679 61.7759 888.335 61.0079C886.991 60.2399 885.935 59.1839 885.167 57.8399C884.399 56.4959 884.015 54.9706 884.015 53.2639C884.015 51.5359 884.399 49.9999 885.167 48.6559C885.935 47.3119 886.991 46.2559 888.335 45.4879C889.679 44.7199 891.204 44.3359 892.911 44.3359C894.617 44.3359 896.132 44.7199 897.455 45.4879C898.799 46.2559 899.855 47.3119 900.623 48.6559C901.391 49.9999 901.785 51.5359 901.807 53.2639C901.807 54.9706 901.412 56.4959 900.623 57.8399C899.855 59.1839 898.799 60.2399 897.455 61.0079C896.132 61.7759 894.617 62.1599 892.911 62.1599ZM892.911 59.9199C894.148 59.9199 895.257 59.6319 896.239 59.0559C897.22 58.4799 897.988 57.6906 898.543 56.6879C899.097 55.6853 899.375 54.5439 899.375 53.2639C899.375 51.9839 899.097 50.8426 898.543 49.8399C897.988 48.8159 897.22 48.0159 896.239 47.4399C895.257 46.8639 894.148 46.5759 892.911 46.5759C891.673 46.5759 890.564 46.8639 889.583 47.4399C888.601 48.0159 887.823 48.8159 887.247 49.8399C886.692 50.8426 886.415 51.9839 886.415 53.2639C886.415 54.5439 886.692 55.6853 887.247 56.6879C887.823 57.6906 888.601 58.4799 889.583 59.0559C890.564 59.6319 891.673 59.9199 892.911 59.9199ZM837.763 69.6159C837.592 69.6159 837.4 69.5732 837.187 69.4879C836.462 69.1679 836.259 68.6559 836.579 67.9519L839.761 60.9377L839.747 60.9119L832.611 46.1279C832.462 45.8079 832.44 45.5092 832.547 45.2319C832.654 44.9546 832.867 44.7412 833.187 44.5919C833.507 44.4426 833.806 44.4212 834.083 44.5279C834.36 44.6132 834.574 44.8159 834.723 45.1359L840.96 58.2941L846.915 45.1679C847.235 44.4852 847.747 44.2932 848.451 44.5919C849.176 44.8906 849.379 45.3919 849.059 46.0959L838.691 68.8799C838.478 69.3706 838.168 69.6159 837.763 69.6159ZM827.194 61.68C827.429 61.8933 827.728 62 828.09 62C828.453 62 828.741 61.8933 828.954 61.68C829.189 61.4453 829.306 61.1466 829.306 60.784V51.568C829.306 50.096 829.029 48.816 828.474 47.728C827.941 46.64 827.184 45.7973 826.202 45.2C825.242 44.6026 824.133 44.304 822.874 44.304C821.552 44.304 820.368 44.6026 819.322 45.2C818.409 45.7221 817.666 46.4318 817.094 47.329C816.579 46.4318 815.892 45.7221 815.034 45.2C814.074 44.6026 812.965 44.304 811.706 44.304C810.469 44.304 809.36 44.6026 808.378 45.2C807.823 45.5382 807.332 45.9516 806.906 46.4403V45.744C806.906 45.3813 806.789 45.0826 806.554 44.848C806.341 44.6133 806.053 44.496 805.69 44.496C805.306 44.496 804.997 44.6133 804.762 44.848C804.549 45.0826 804.442 45.3813 804.442 45.744V60.784C804.442 61.1466 804.549 61.4453 804.762 61.68C804.997 61.8933 805.306 62 805.69 62C806.053 62 806.341 61.8933 806.554 61.68C806.789 61.4453 806.906 61.1466 806.906 60.784V51.312C806.906 49.9253 807.333 48.8053 808.186 47.952C809.04 47.0773 810.128 46.64 811.45 46.64C812.688 46.64 813.701 47.088 814.49 47.984C815.28 48.8586 815.674 50.0533 815.674 51.568V60.784C815.674 61.1466 815.792 61.4453 816.026 61.68C816.261 61.8933 816.56 62 816.922 62C817.285 62 817.573 61.8933 817.786 61.68C818.021 61.4453 818.138 61.1466 818.138 60.784V51.568V51.504L818.138 51.4727L818.138 51.4524C818.127 50.0045 818.532 48.8484 819.354 47.984C820.208 47.088 821.296 46.64 822.618 46.64C823.856 46.64 824.869 47.088 825.658 47.984C826.448 48.8586 826.842 50.0533 826.842 51.568V60.784C826.842 61.1466 826.96 61.4453 827.194 61.68ZM792.722 62.1599C790.994 62.1599 789.458 61.7866 788.114 61.0399C786.792 60.2719 785.746 59.2159 784.978 57.8719C784.232 56.5279 783.858 54.9919 783.858 53.2639C783.858 51.5146 784.21 49.9786 784.914 48.6559C785.64 47.3119 786.632 46.2559 787.89 45.4879C789.149 44.7199 790.6 44.3359 792.242 44.3359C793.864 44.3359 795.272 44.7093 796.466 45.4559C797.682 46.1813 798.621 47.1946 799.282 48.4959C799.944 49.7973 800.274 51.2799 800.274 52.9439C800.274 53.2853 800.168 53.5626 799.954 53.7759C799.741 53.9679 799.464 54.0639 799.122 54.0639H786.199C786.291 55.0425 786.556 55.9278 786.994 56.7199C787.57 57.7226 788.349 58.5119 789.33 59.0879C790.312 59.6639 791.442 59.9519 792.722 59.9519C793.49 59.9519 794.258 59.8239 795.026 59.5679C795.816 59.2906 796.445 58.9493 796.914 58.5439C797.149 58.3519 797.416 58.2559 797.714 58.2559C798.013 58.2346 798.269 58.3093 798.482 58.4799C798.76 58.7359 798.898 59.0133 798.898 59.3119C798.92 59.6106 798.802 59.8666 798.546 60.0799C797.842 60.6773 796.946 61.1786 795.858 61.5839C794.77 61.9679 793.725 62.1599 792.722 62.1599ZM786.244 52.0159H797.964C797.882 51.17 797.671 50.3913 797.33 49.6799C796.861 48.6986 796.189 47.9306 795.314 47.3759C794.461 46.8213 793.437 46.5439 792.242 46.5439C791.026 46.5439 789.96 46.8319 789.042 47.4079C788.125 47.9839 787.41 48.7839 786.898 49.8079C786.571 50.4774 786.353 51.2134 786.244 52.0159ZM765.585 61.0081C766.929 61.7761 768.444 62.1601 770.129 62.1601C771.793 62.1601 773.287 61.7761 774.609 61.0081C775.953 60.2401 777.009 59.1947 777.777 57.8721C778.567 56.5281 778.983 55.0241 779.025 53.3601V38.2561C779.025 37.8721 778.908 37.5734 778.673 37.3601C778.439 37.1254 778.14 37.0081 777.777 37.0081C777.415 37.0081 777.116 37.1254 776.881 37.3601C776.647 37.5734 776.529 37.8721 776.529 38.2561V47.6641C775.825 46.6614 774.897 45.8614 773.745 45.2641C772.593 44.6454 771.303 44.3361 769.873 44.3361C768.231 44.3361 766.759 44.7307 765.457 45.5201C764.156 46.2881 763.121 47.3441 762.353 48.6881C761.607 50.0321 761.233 51.5467 761.233 53.2321C761.233 54.9387 761.617 56.4641 762.385 57.8081C763.175 59.1521 764.241 60.2187 765.585 61.0081ZM773.425 59.0561C772.465 59.6321 771.367 59.9201 770.129 59.9201C768.913 59.9201 767.815 59.6321 766.833 59.0561C765.852 58.4587 765.073 57.6587 764.497 56.6561C763.921 55.6534 763.633 54.5121 763.633 53.2321C763.633 51.9734 763.921 50.8427 764.497 49.8401C765.073 48.8161 765.852 48.0161 766.833 47.4401C767.815 46.8641 768.913 46.5761 770.129 46.5761C771.367 46.5761 772.465 46.8641 773.425 47.4401C774.407 48.0161 775.175 48.8161 775.729 49.8401C776.305 50.8427 776.593 51.9734 776.593 53.2321C776.593 54.5121 776.305 55.6534 775.729 56.6561C775.175 57.6587 774.407 58.4587 773.425 59.0561ZM746.215 62.5121C744.273 62.5121 742.545 62.1387 741.031 61.3921C739.537 60.6454 738.364 59.6107 737.511 58.2881C736.679 56.9654 736.263 55.4507 736.263 53.7441V38.2561C736.263 37.8934 736.38 37.5947 736.615 37.3601C736.849 37.1254 737.148 37.0081 737.511 37.0081C737.873 37.0081 738.172 37.1254 738.407 37.3601C738.641 37.5947 738.759 37.8934 738.759 38.2561V53.7441C738.759 55.0027 739.068 56.1121 739.687 57.0721C740.327 58.0321 741.212 58.7894 742.343 59.3441C743.473 59.8774 744.764 60.1441 746.215 60.1441C747.644 60.1441 748.913 59.8774 750.023 59.3441C751.132 58.7894 751.996 58.0321 752.615 57.0721C753.255 56.1121 753.575 55.0027 753.575 53.7441V38.2561C753.575 37.8934 753.692 37.5947 753.927 37.3601C754.161 37.1254 754.46 37.0081 754.823 37.0081C755.207 37.0081 755.505 37.1254 755.719 37.3601C755.953 37.5947 756.071 37.8934 756.071 38.2561V53.7441C756.071 55.4507 755.644 56.9654 754.791 58.2881C753.959 59.6107 752.796 60.6454 751.303 61.3921C749.831 62.1387 748.135 62.5121 746.215 62.5121Z" fill="white"/>
</svg>
